<svg width="50" height="53" viewBox="0 0 50 53" fill="none" xmlns="http://www.w3.org/2000/svg">
<path fill-rule="evenodd" clip-rule="evenodd" d="M24.3892 0.550516C24.3892 0.574791 24.3525 0.585101 24.3076 0.573355C24.2628 0.561739 24.2261 0.570875 24.2261 0.593845C24.2261 0.616815 24.1894 0.625951 24.1445 0.614205C24.0996 0.602459 24.0629 0.611595 24.0629 0.634565C24.0629 0.657534 24.0263 0.66667 23.9814 0.654924C23.9365 0.643309 23.8998 0.652314 23.8998 0.675023C23.8998 0.697732 23.8723 0.705693 23.8386 0.692772C23.8049 0.679982 23.7775 0.689249 23.7775 0.713654C23.7775 0.737929 23.7407 0.748239 23.6959 0.736494C23.651 0.724878 23.6144 0.734014 23.6144 0.756984C23.6144 0.779954 23.5776 0.789089 23.5328 0.777343C23.4879 0.765597 23.4512 0.774603 23.4512 0.797312C23.4512 0.82002 23.4249 0.828504 23.3926 0.816236C23.3604 0.803837 23.3275 0.813495 23.3194 0.837639C23.3113 0.861784 23.2461 0.88371 23.1742 0.88632C23.1023 0.88893 23.0435 0.90681 23.0434 0.926126C23.0434 0.945311 23.0159 0.950401 22.9822 0.93748C22.9485 0.92469 22.921 0.92965 22.921 0.948574C22.921 0.990207 22.5931 1.07843 22.5461 1.04946C22.528 1.03823 22.5131 1.0505 22.5131 1.0766C22.5131 1.10271 22.4856 1.11354 22.4519 1.10062C22.4182 1.08783 22.3908 1.09696 22.3908 1.12111C22.3908 1.14525 22.3633 1.15439 22.3296 1.14147C22.296 1.12855 22.2684 1.13768 22.2684 1.16183C22.2684 1.18597 22.2409 1.19511 22.2072 1.18219C22.1735 1.1694 22.1461 1.17853 22.1461 1.20268C22.1461 1.22682 22.1186 1.23596 22.0849 1.22304C22.0512 1.21012 22.0237 1.21429 22.0237 1.23217C22.0237 1.27407 21.7358 1.36347 21.6906 1.33554C21.672 1.32405 21.6567 1.33593 21.6567 1.36203C21.6567 1.38826 21.6292 1.3991 21.5955 1.38618C21.5618 1.37326 21.5343 1.37756 21.5343 1.3957C21.5343 1.4265 21.2376 1.53861 21.1468 1.54214C21.1244 1.54292 21.0968 1.55427 21.0857 1.56733C21.0474 1.61183 20.503 1.80642 20.4715 1.78698C20.4542 1.77627 20.434 1.78202 20.4264 1.79977C20.4188 1.81765 20.1925 1.9214 19.9233 2.03064C13.1517 4.77646 7.18084 9.8793 3.52771 16.0427C3.37475 16.3006 3.22153 16.5346 3.18721 16.5626C3.15288 16.5907 3.138 16.6137 3.15406 16.6137C3.17011 16.6135 3.15484 16.6686 3.11999 16.736C3.08528 16.8033 3.04195 16.8582 3.02381 16.8584C3.00567 16.8584 2.99092 16.8816 2.99092 16.9101C2.99092 16.9385 2.87985 17.1634 2.74412 17.4096C2.60839 17.6561 2.3736 18.1053 2.22247 18.4082C2.07134 18.711 1.93613 18.9679 1.92203 18.9792C1.90794 18.9903 1.89058 19.0271 1.88327 19.0607C1.85456 19.1939 1.49331 19.9579 1.45911 19.9579C1.43901 19.9579 1.43314 19.975 1.44593 19.9957C1.47647 20.0449 1.38563 20.2434 1.33252 20.2434C1.30994 20.2434 1.30224 20.2541 1.31542 20.2673C1.34792 20.2998 1.26517 20.5289 1.2208 20.5289C1.20135 20.5289 1.19496 20.554 1.20683 20.5848C1.21858 20.6156 1.20292 20.666 1.17199 20.697C1.14106 20.7279 1.11691 20.7625 1.11835 20.7737C1.12435 20.8204 1.00454 21.1407 0.98092 21.1407C0.966955 21.1407 0.952468 21.1804 0.948814 21.2288C0.94516 21.2772 0.92741 21.3277 0.90953 21.3409C0.89152 21.3542 0.876642 21.3833 0.87625 21.4058C0.874814 21.5004 0.724335 21.8748 0.687662 21.8748C0.665736 21.8748 0.658036 21.8915 0.670565 21.9118C0.696014 21.9529 0.530396 22.418 0.483151 22.4382C0.466707 22.4453 0.463314 22.4774 0.475712 22.5096C0.48798 22.5419 0.478453 22.5682 0.454308 22.5682C0.430164 22.5682 0.421028 22.5956 0.433818 22.6293C0.446739 22.663 0.435906 22.6905 0.409804 22.6905C0.383702 22.6905 0.371825 22.7059 0.383441 22.7247C0.410848 22.7691 0.279815 23.1799 0.238182 23.1799C0.220694 23.1799 0.21704 23.2075 0.22996 23.2411C0.242881 23.2748 0.233745 23.3023 0.2096 23.3023C0.185456 23.3023 0.17632 23.3298 0.18911 23.3634C0.202031 23.3971 0.192895 23.4246 0.168751 23.4246C0.144606 23.4246 0.13547 23.4522 0.148391 23.4858C0.161311 23.5195 0.152176 23.5469 0.128031 23.5471C0.103887 23.5471 0.0947509 23.5745 0.107541 23.6081C0.120462 23.6418 0.115372 23.6693 0.0961865 23.6693C0.0657775 23.6693 0.0535095 23.8723 0.0746522 24.0262C0.0801337 24.0666 0.964214 24.0772 4.34053 24.0772H8.59962L8.71278 23.8427C8.77503 23.7137 8.84224 23.5969 8.86208 23.5832C8.88179 23.5695 8.8964 23.5465 8.89458 23.5322C8.8827 23.4436 8.89732 23.3831 8.94208 23.3358C8.97001 23.3061 8.99833 23.2452 9.00473 23.2003C9.02052 23.0896 10.0687 20.9836 10.151 20.8969C10.187 20.8591 10.2204 20.8089 10.225 20.7854C10.2503 20.6595 11.1242 19.2646 11.1779 19.2646C11.1987 19.2646 11.2111 19.2478 11.2055 19.2271C11.1914 19.1753 11.786 18.3224 12.2687 17.702C14.4201 14.9366 17.155 12.6101 20.2495 10.9129C21.1813 10.402 22.898 9.60144 23.0935 9.5867C23.1332 9.58369 23.1657 9.56882 23.1657 9.55355C23.1657 9.52731 23.3442 9.46297 23.4307 9.45814C23.4532 9.45697 23.4807 9.44392 23.492 9.42943C23.5032 9.41481 23.5491 9.39641 23.5939 9.38858C23.6388 9.38075 23.6847 9.36391 23.6959 9.35112C23.739 9.30205 24.0702 9.19047 24.1064 9.21278C24.1274 9.22583 24.1445 9.215 24.1445 9.1889C24.1445 9.16267 24.172 9.15183 24.2057 9.16475C24.2394 9.17768 24.2669 9.16893 24.2669 9.14531C24.2669 9.12169 24.289 9.10981 24.3159 9.11882C24.3429 9.12769 24.398 9.10681 24.4383 9.07235C24.5419 8.98361 24.5538 0.56944 24.4504 0.529634C24.4168 0.516844 24.3892 0.52611 24.3892 0.550516ZM32.0677 15.4717C31.9762 15.5785 31.7109 15.5852 31.6706 15.4819C31.6454 15.4169 31.6361 15.4187 31.568 15.5022C31.4797 15.6103 31.3024 15.6233 31.2477 15.5259C31.2135 15.4645 31.2041 15.4666 31.1544 15.5462C31.0943 15.6423 30.9333 15.6663 30.9025 15.5838C30.8891 15.5482 30.8654 15.5561 30.8237 15.6106C30.7779 15.6701 30.7339 15.6822 30.6353 15.6625C30.5535 15.6462 30.5069 15.6531 30.5069 15.6817C30.5069 15.7097 30.4612 15.7174 30.3846 15.702C30.3156 15.6882 30.2622 15.6949 30.2622 15.7173C30.2622 15.7733 30.1252 15.7669 30.0664 15.7082C30.0283 15.6701 30.0175 15.6746 30.0175 15.7285C30.0175 15.8234 29.8553 15.8213 29.8517 15.7266C29.8499 15.6741 29.839 15.6808 29.8106 15.7516C29.7828 15.8211 29.7493 15.8421 29.6908 15.8268C29.6462 15.8151 29.6097 15.8243 29.6097 15.8473C29.6097 15.8703 29.5637 15.8802 29.5077 15.8695C29.4516 15.8588 29.4058 15.8679 29.4058 15.8898C29.4058 15.9118 29.3599 15.921 29.3037 15.9103C29.2477 15.8995 29.2018 15.9088 29.2018 15.9307C29.2018 15.9526 29.1651 15.961 29.1202 15.9492C29.0753 15.9375 29.0387 15.9466 29.0387 15.9696C29.0387 15.9926 29.002 16.0017 28.9571 15.9901C28.9123 15.9783 28.8646 15.9866 28.851 16.0085C28.8376 16.0303 28.8009 16.0384 28.7694 16.0262C28.7381 16.0142 28.7124 16.0243 28.7124 16.0487C28.7124 16.073 28.6757 16.0833 28.6308 16.0715C28.5859 16.0599 28.5493 16.069 28.5493 16.092C28.5493 16.115 28.5134 16.1244 28.4696 16.1129C28.4258 16.1014 28.3845 16.1071 28.3779 16.1257C28.3712 16.1441 28.3107 16.1651 28.2433 16.1723C28.1761 16.1795 28.1105 16.1996 28.0976 16.217C28.0846 16.2344 28.0159 16.2528 27.9447 16.2578C27.8735 16.2628 27.8153 16.2827 27.8153 16.3019C27.8151 16.3211 27.7876 16.3263 27.7539 16.3134C27.7202 16.3004 27.6928 16.3041 27.6928 16.3216C27.6928 16.3632 27.282 16.4942 27.2376 16.4668C27.2187 16.4552 27.2034 16.4671 27.2034 16.4932C27.2034 16.5193 27.1759 16.5301 27.1422 16.5172C27.1085 16.5044 27.081 16.5136 27.081 16.5377C27.081 16.5619 27.0535 16.571 27.0198 16.5581C26.9861 16.5451 26.9587 16.5504 26.9587 16.5697C26.9587 16.6018 26.7905 16.667 26.6935 16.6725C26.6711 16.6737 26.6277 16.6985 26.5971 16.7276C26.5664 16.7566 26.5207 16.7735 26.4954 16.7651C26.4702 16.7567 26.4241 16.7752 26.393 16.8064C26.3619 16.8375 26.3113 16.8533 26.2805 16.8415C26.2497 16.8298 26.2246 16.8338 26.2246 16.8505C26.2246 16.8672 26.1006 16.9341 25.9492 16.9989C25.7978 17.0638 25.4033 17.2515 25.0723 17.416C24.7415 17.5806 24.4708 17.7053 24.4708 17.6931C24.4708 17.6808 24.4306 17.7083 24.3815 17.7539C24.2977 17.8321 24.2476 17.8534 24.175 17.842C24.1582 17.8393 24.1445 17.8565 24.1445 17.8803C24.1445 17.904 24.1261 17.9121 24.1038 17.8983C24.0813 17.8844 24.0629 17.8908 24.0629 17.9124C24.0629 17.934 23.9758 18.0026 23.8693 18.0646C21.0836 19.6869 18.612 22.3837 17.1457 25.4008C16.9818 25.7383 16.8277 26.0375 16.8034 26.0654C16.7791 26.0934 16.7689 26.1164 16.7807 26.1164C16.8072 26.1164 16.6439 26.536 16.6063 26.5647C16.5912 26.5761 16.5725 26.6221 16.5647 26.667C16.5569 26.7119 16.5385 26.7578 16.5239 26.769C16.5094 26.7802 16.4963 26.8077 16.4951 26.8302C16.4899 26.9227 16.4252 27.0953 16.3956 27.0953C16.3781 27.0953 16.3658 27.1182 16.3684 27.1463C16.3764 27.231 16.22 27.6662 16.1817 27.6662C16.1619 27.6662 16.1552 27.6811 16.1664 27.6993C16.1954 27.7462 16.1071 28.0741 16.0655 28.0741C16.0464 28.0741 16.0415 28.1016 16.0544 28.1353C16.0673 28.169 16.0582 28.1965 16.034 28.1965C16.0099 28.1964 16 28.2221 16.012 28.2535C16.0241 28.2849 16.0151 28.3222 15.9921 28.3364C15.9692 28.3505 15.9607 28.3891 15.9734 28.422C15.986 28.455 15.9766 28.4819 15.9525 28.4819C15.9283 28.4819 15.9184 28.5076 15.9304 28.539C15.9426 28.5704 15.9336 28.6076 15.9106 28.6218C15.8876 28.6361 15.8791 28.6746 15.8918 28.7076C15.9044 28.7405 15.8961 28.7675 15.8734 28.7675C15.8507 28.7675 15.8417 28.8042 15.8534 28.8491C15.8652 28.8938 15.856 28.9306 15.8331 28.9306C15.8101 28.9306 15.801 28.9673 15.8126 29.0122C15.8243 29.057 15.8152 29.0938 15.7922 29.0938C15.7692 29.0938 15.7601 29.1304 15.7718 29.1753C15.784 29.2215 15.7732 29.2569 15.7468 29.2569C15.7178 29.2569 15.7101 29.2949 15.7262 29.3588C15.7408 29.4174 15.7341 29.4608 15.7104 29.4608C15.6875 29.4608 15.6785 29.4974 15.6903 29.5423C15.7024 29.5885 15.6916 29.6239 15.6652 29.6239C15.6362 29.6239 15.6285 29.6619 15.6446 29.7258C15.6605 29.7895 15.6528 29.8279 15.6241 29.8279C15.5955 29.8279 15.5878 29.8661 15.6037 29.9298C15.6197 29.9934 15.6121 30.0317 15.5834 30.0317C15.5547 30.0317 15.547 30.0701 15.563 30.1337C15.5784 30.1955 15.5711 30.2357 15.5444 30.2357C15.5171 30.2357 15.5095 30.2823 15.5247 30.358C15.5401 30.4346 15.5324 30.4804 15.5043 30.4804C15.4762 30.4804 15.4685 30.5261 15.4839 30.6027C15.4988 30.6773 15.4914 30.7252 15.465 30.7252C15.4387 30.7252 15.4304 30.7787 15.4439 30.8619C15.4631 30.9795 15.4526 31.0031 15.37 31.0294C15.2903 31.0548 15.286 31.0633 15.3452 31.0791C15.4505 31.1072 15.4384 31.2907 15.3285 31.3312C15.2531 31.3592 15.2501 31.3677 15.3081 31.3898C15.4154 31.4311 15.3974 31.6476 15.284 31.6794C15.2003 31.7029 15.1985 31.7089 15.2636 31.7474C15.3541 31.8008 15.3647 32.071 15.2763 32.071C15.1835 32.071 15.1527 32.16 15.2268 32.2141C15.3232 32.2846 15.3147 32.5293 15.2127 32.6216C15.1158 32.7093 15.1078 32.7874 15.1922 32.8199C15.2751 32.8517 15.2751 33.345 15.1922 33.5801C15.1137 33.8027 15.1137 34.2343 15.1922 34.4224C15.276 34.623 15.276 35.1533 15.1922 35.1854C15.1085 35.2176 15.1156 35.2805 15.2127 35.3636C15.3188 35.4545 15.3252 35.7185 15.2229 35.7814C15.1566 35.822 15.1582 35.8298 15.2433 35.8902C15.3536 35.9687 15.3643 36.1383 15.2636 36.2156C15.1972 36.2666 15.199 36.2724 15.2888 36.2976C15.3767 36.3221 15.3831 36.3405 15.3609 36.5021C15.3465 36.6075 15.3529 36.6797 15.3765 36.6797C15.4488 36.6797 15.4204 36.8765 15.3452 36.8966C15.2848 36.9128 15.2879 36.9202 15.3656 36.9452C15.4732 36.9798 15.4873 37.1075 15.3896 37.1622C15.3299 37.1955 15.3329 37.2037 15.4142 37.2294C15.4907 37.2538 15.5026 37.2793 15.483 37.377C15.4687 37.4493 15.4766 37.4953 15.5036 37.4954C15.5304 37.4954 15.5377 37.5355 15.5222 37.5973C15.5061 37.6615 15.5138 37.6993 15.5433 37.6993C15.5733 37.6993 15.5813 37.7427 15.5655 37.8217C15.5502 37.8978 15.5578 37.944 15.5855 37.944C15.61 37.944 15.6205 37.9806 15.6087 38.0255C15.597 38.0704 15.6061 38.1071 15.6291 38.1071C15.652 38.1071 15.6621 38.153 15.6514 38.209C15.6406 38.2652 15.6497 38.3111 15.6714 38.3111C15.6931 38.3111 15.6994 38.3568 15.6853 38.413C15.6693 38.477 15.677 38.515 15.7061 38.515C15.7323 38.515 15.7431 38.5503 15.731 38.5965C15.7194 38.6414 15.7285 38.6781 15.7515 38.6781C15.7745 38.6781 15.7836 38.7148 15.7718 38.7597C15.7601 38.8046 15.7692 38.8412 15.7922 38.8412C15.8152 38.8412 15.8246 38.8771 15.8131 38.9208C15.8017 38.9647 15.8092 39.0061 15.8297 39.0129C15.8502 39.0198 15.8712 39.0848 15.8763 39.1575C15.8815 39.2302 15.9016 39.2898 15.921 39.2898C15.9405 39.2898 15.9467 39.3266 15.935 39.3715C15.9232 39.4163 15.9322 39.4531 15.955 39.4531C15.9777 39.4531 15.9858 39.4805 15.9728 39.5141C15.9599 39.5478 15.9693 39.5754 15.9936 39.5754C16.018 39.5754 16.0283 39.612 16.0166 39.6569C16.0048 39.7018 16.0138 39.7385 16.0365 39.7385C16.0592 39.7385 16.0673 39.766 16.0544 39.7997C16.0415 39.8334 16.0506 39.8609 16.0748 39.8609C16.0989 39.8609 16.108 39.8883 16.0951 39.922C16.0823 39.9557 16.0915 39.9832 16.1156 39.9832C16.1398 39.9832 16.1489 40.0107 16.136 40.0444C16.1231 40.0781 16.1322 40.1056 16.1563 40.1056C16.1805 40.1056 16.1896 40.133 16.1767 40.1667C16.1639 40.2004 16.173 40.2279 16.1972 40.2279C16.2213 40.2279 16.2309 40.2543 16.2186 40.2865C16.2062 40.3186 16.2151 40.3514 16.2383 40.3591C16.2615 40.3668 16.2834 40.423 16.287 40.4841C16.2906 40.5451 16.3052 40.5949 16.3196 40.5949C16.3448 40.5949 16.4089 40.7758 16.4136 40.8601C16.4147 40.8825 16.4395 40.9259 16.4686 40.9566C16.4976 40.9872 16.5146 41.0329 16.5061 41.0582C16.4977 41.0834 16.5163 41.1295 16.5475 41.1607C16.5785 41.1917 16.5943 41.2424 16.5826 41.2732C16.5708 41.304 16.5749 41.3292 16.5916 41.3292C16.6083 41.329 16.6751 41.453 16.74 41.6044C16.8048 41.7558 16.9823 42.13 17.1344 42.4358C17.2864 42.7415 17.3996 43.0031 17.3857 43.0169C17.3719 43.0308 17.3805 43.0421 17.4048 43.0421C17.4289 43.0421 17.5176 43.166 17.6015 43.3174C17.6854 43.4688 17.9057 43.8252 18.0909 44.1094C18.2761 44.3936 18.4169 44.6367 18.404 44.6497C18.3909 44.6628 18.3999 44.6735 18.424 44.6735C18.4481 44.6735 18.5658 44.8065 18.6856 44.9691C19.7913 46.4689 21.2507 47.845 22.921 48.9629C23.2911 49.2106 23.6075 49.4341 23.6239 49.4599C23.6403 49.4854 23.6542 49.4912 23.6544 49.4725C23.6548 49.4539 23.7147 49.475 23.7877 49.5196C23.8605 49.5641 24.1129 49.7053 24.3485 49.8334C24.5839 49.9614 24.7858 50.0778 24.7971 50.0922C24.8083 50.1064 24.845 50.1242 24.8786 50.1315C24.9123 50.1388 24.946 50.1617 24.9535 50.1826C24.961 50.2035 24.984 50.2103 25.0044 50.1976C25.0249 50.185 25.0418 50.191 25.0418 50.2109C25.0418 50.2309 25.0647 50.248 25.0928 50.2488C25.1663 50.2509 26.2016 50.7169 26.217 50.7548C26.2241 50.7723 26.2538 50.7774 26.2831 50.7661C26.3124 50.7549 26.3619 50.7711 26.393 50.8023C26.4241 50.8334 26.4702 50.852 26.4954 50.8435C26.5207 50.8352 26.5687 50.8558 26.6024 50.8893C26.636 50.9229 26.672 50.9419 26.6823 50.9315C26.7107 50.903 27.081 51.0482 27.081 51.0878C27.081 51.1068 27.0973 51.1121 27.1174 51.0997C27.1639 51.071 27.5297 51.2052 27.5297 51.251C27.5297 51.2699 27.5478 51.2741 27.57 51.2604C27.6191 51.2301 28.0598 51.3639 28.0598 51.409C28.0598 51.4267 28.0874 51.4306 28.121 51.4176C28.1547 51.4047 28.1823 51.4099 28.1823 51.4291C28.1824 51.4483 28.2411 51.4662 28.313 51.4688C28.3849 51.4714 28.4499 51.4924 28.4576 51.5155C28.4653 51.5385 28.5074 51.548 28.5512 51.5365C28.5949 51.5251 28.6308 51.5316 28.631 51.551C28.631 51.5705 28.6898 51.5886 28.7616 51.5912C28.8335 51.5938 28.8986 51.6148 28.9062 51.6378C28.9139 51.6609 28.9561 51.6703 28.9998 51.659C29.0436 51.6475 29.0795 51.6569 29.0795 51.6798C29.0795 51.7028 29.1162 51.712 29.1611 51.7002C29.2059 51.6885 29.2427 51.6976 29.2427 51.7206C29.2427 51.7435 29.2793 51.7527 29.3242 51.7411C29.3704 51.7289 29.4058 51.7398 29.4058 51.766C29.4058 51.7951 29.4438 51.8028 29.5077 51.7867C29.5663 51.772 29.6097 51.7788 29.6097 51.8025C29.6097 51.8252 29.6463 51.8342 29.6912 51.8226C29.7374 51.8105 29.7728 51.8213 29.7728 51.8476C29.7728 51.8767 29.8108 51.8844 29.8747 51.8683C29.9384 51.8524 29.9768 51.8599 29.9768 51.8887C29.9768 51.9174 30.015 51.9251 30.0787 51.909C30.1373 51.8944 30.1806 51.9011 30.1806 51.9248C30.1806 51.9477 30.2182 51.9564 30.264 51.9444C30.3172 51.9306 30.3686 51.9504 30.4055 51.9992C30.4391 52.0434 30.4641 52.0543 30.4649 52.0249C30.4663 51.9685 30.6293 51.9527 30.6293 52.009C30.6293 52.0283 30.6718 52.036 30.7236 52.0261C30.7923 52.0129 30.8302 52.0338 30.8635 52.1031C30.8991 52.177 30.9098 52.1823 30.912 52.1268C30.9149 52.0509 31.1188 52.0197 31.1188 52.0953C31.1188 52.1172 31.1708 52.1246 31.2353 52.1117C31.332 52.0923 31.3569 52.1045 31.3824 52.184C31.4077 52.2636 31.4161 52.2677 31.4318 52.2084C31.4525 52.1315 31.6489 52.1056 31.6489 52.1797C31.6489 52.2066 31.7036 52.2121 31.7974 52.1944C31.924 52.1707 31.957 52.181 32.0208 52.264C32.0826 52.3441 32.0959 52.3487 32.0967 52.29C32.0973 52.238 32.1309 52.2186 32.2199 52.2186C32.2973 52.2186 32.3423 52.2395 32.3423 52.2754C32.3423 52.3567 32.4629 52.3927 32.4909 52.3199C32.5221 52.2383 32.7909 52.2367 32.7909 52.3182C32.7909 52.411 32.8799 52.4416 32.934 52.3675C33.0063 52.2688 33.2838 52.2778 33.3728 52.3817C33.4555 52.4784 33.5478 52.4874 33.5806 52.4021C33.6103 52.3246 34.2156 52.3137 34.2913 52.3894C34.4147 52.5128 35.5033 52.5313 35.6346 52.4123C35.7411 52.3158 36.3289 52.3076 36.3652 52.4021C36.3979 52.4874 36.4902 52.4784 36.5729 52.3817C36.6653 52.2738 36.9677 52.267 37.0304 52.3716C37.0702 52.4379 37.0788 52.4364 37.1511 52.3512C37.2445 52.241 37.4586 52.2264 37.5144 52.3263C37.5563 52.4012 37.6443 52.368 37.6443 52.2773C37.6443 52.2374 37.6898 52.2186 37.7869 52.2186C37.8867 52.2186 37.9297 52.237 37.9297 52.2798C37.9297 52.3689 38.0015 52.3546 38.0317 52.2593C38.0636 52.1586 38.236 52.1493 38.2898 52.2455C38.3237 52.306 38.3327 52.3039 38.3749 52.2251C38.4327 52.1169 38.6086 52.1057 38.6362 52.2084C38.652 52.2677 38.6605 52.2634 38.6858 52.1836C38.7121 52.1011 38.7358 52.0906 38.8526 52.1096C38.9273 52.1218 39.0003 52.1126 39.0147 52.0894C39.029 52.0663 39.0936 52.0578 39.1582 52.0707C39.2233 52.0838 39.2757 52.0765 39.2757 52.0544C39.2757 51.9879 39.4322 52.0102 39.4726 52.0825C39.5062 52.1422 39.514 52.1396 39.5394 52.0596C39.5589 51.9983 39.5967 51.9717 39.6564 51.9775C39.7049 51.9822 39.777 51.9721 39.8165 51.955C39.8584 51.937 39.9137 51.945 39.9491 51.9743C39.9986 52.0154 40.0098 52.0124 40.0098 51.9585C40.0098 51.881 40.1722 51.866 40.1741 51.9433C40.1749 51.9732 40.1989 51.9633 40.2323 51.9192C40.271 51.8683 40.3164 51.8528 40.3738 51.8709C40.4269 51.8879 40.4584 51.8798 40.4584 51.8495C40.4584 51.82 40.498 51.8088 40.5603 51.8207C40.6164 51.8315 40.6624 51.8224 40.6624 51.8007C40.6624 51.7789 40.708 51.7726 40.7643 51.7867C40.8282 51.8028 40.8662 51.7951 40.8662 51.766C40.8662 51.7398 40.9016 51.7289 40.9478 51.7409C40.9925 51.7527 41.0406 51.7441 41.0543 51.7217C41.0681 51.6996 41.1139 51.6903 41.1563 51.7014C41.1986 51.7125 41.2333 51.7028 41.2333 51.6798C41.2333 51.6569 41.27 51.6477 41.3149 51.6595C41.3597 51.6711 41.3965 51.6621 41.3965 51.6394C41.3965 51.6156 41.4398 51.6088 41.4984 51.6236C41.5624 51.6396 41.6003 51.6319 41.6003 51.6028C41.6003 51.5766 41.6357 51.5658 41.6819 51.5779C41.7268 51.5895 41.7635 51.5804 41.7635 51.5574C41.7635 51.5345 41.8002 51.5253 41.845 51.5371C41.8899 51.5488 41.9266 51.5397 41.9266 51.5167C41.9266 51.4937 41.9633 51.4846 42.0082 51.4963C42.0531 51.508 42.0898 51.4988 42.0898 51.4759C42.0898 51.4529 42.1256 51.4435 42.1694 51.455C42.2132 51.4665 42.2546 51.459 42.2614 51.4385C42.2683 51.4179 42.3333 51.397 42.406 51.3918C42.4787 51.3867 42.5383 51.3666 42.5383 51.3472C42.5383 51.3277 42.5751 51.3215 42.62 51.3332C42.6648 51.3448 42.7016 51.3358 42.7016 51.3131C42.7016 51.2904 42.7278 51.2819 42.7601 51.2943C42.7923 51.3066 42.8245 51.299 42.8317 51.2773C42.8389 51.2557 42.9043 51.2339 42.977 51.2287C43.0497 51.2236 43.1093 51.2036 43.1093 51.1844C43.1093 51.1652 43.1368 51.16 43.1705 51.1729C43.2042 51.1859 43.2317 51.1806 43.2317 51.1615C43.2317 51.1269 43.4899 51.0561 43.5885 51.0637C43.6166 51.0658 43.6396 51.0493 43.6396 51.0269C43.6396 51.0046 43.6671 50.9969 43.7008 51.0098C43.7345 51.0227 43.762 51.0136 43.762 50.9894C43.762 50.9653 43.7894 50.9562 43.8231 50.9691C43.8567 50.9819 43.8843 50.9727 43.8843 50.9486C43.8843 50.9244 43.9118 50.9153 43.9455 50.9282C43.9792 50.9412 44.0067 50.932 44.0067 50.9079C44.0067 50.8837 44.0341 50.8746 44.0678 50.8875C44.1014 50.9003 44.129 50.8972 44.129 50.8802C44.129 50.837 44.497 50.7053 44.5413 50.7327C44.5612 50.745 44.5777 50.7342 44.5777 50.7086C44.5777 50.683 44.6004 50.6696 44.6282 50.6788C44.6561 50.6881 44.7041 50.6705 44.7349 50.6397C44.7658 50.6087 44.8117 50.5905 44.8369 50.5988C44.8621 50.6073 44.9083 50.5886 44.9393 50.5576C44.9705 50.5264 45.0212 50.5106 45.052 50.5223C45.0826 50.5342 45.1078 50.5261 45.1078 50.5043C45.1078 50.4827 45.1245 50.4649 45.1449 50.4649C45.1652 50.4649 45.4537 50.3442 45.7858 50.1968C46.118 50.0494 46.4086 49.9255 46.4318 49.9216C46.4551 49.9176 46.4833 49.9045 46.4945 49.8925C46.5057 49.8805 46.7627 49.7356 47.0655 49.5704C47.3683 49.4053 47.6849 49.2268 47.7691 49.1736L47.922 49.0772V45.1215C47.922 42.9459 47.9095 41.166 47.8944 41.166C47.8792 41.1659 47.6361 41.3194 47.3539 41.5069C45.9666 42.4291 43.1205 43.9043 42.9417 43.7937C42.9218 43.7815 42.9054 43.7888 42.9054 43.8102C42.9054 43.8453 42.7418 43.9109 42.6404 43.9167C42.6179 43.9178 42.5904 43.9284 42.5792 43.9402C42.5314 43.9899 42.3252 44.0608 42.2906 44.0393C42.2699 44.0266 42.2529 44.0375 42.2529 44.0636C42.2529 44.0897 42.2254 44.1006 42.1917 44.0876C42.158 44.0748 42.1306 44.084 42.1306 44.1081C42.1306 44.1323 42.1031 44.1414 42.0694 44.1285C42.0357 44.1156 42.0082 44.1247 42.0082 44.1488C42.0082 44.173 41.9806 44.1821 41.947 44.1692C41.9133 44.1564 41.8859 44.1655 41.8859 44.1897C41.8859 44.2138 41.8584 44.223 41.8247 44.2101C41.791 44.1971 41.7635 44.2063 41.7635 44.2304C41.7635 44.2546 41.7359 44.2637 41.7023 44.2508C41.6686 44.238 41.6412 44.2471 41.6412 44.2713C41.6412 44.2954 41.6148 44.3049 41.5826 44.2927C41.5504 44.2803 41.5175 44.2899 41.5094 44.3141C41.5013 44.3382 41.436 44.3601 41.3641 44.3628C41.2922 44.3654 41.2335 44.3832 41.2333 44.4026C41.2333 44.4217 41.2058 44.4268 41.1721 44.4139C41.1385 44.4011 41.1109 44.4104 41.1109 44.4348C41.1109 44.4591 41.0742 44.4694 41.0294 44.4576C40.9845 44.446 40.9478 44.455 40.9478 44.4777C40.9478 44.5004 40.9202 44.5084 40.8866 44.4955C40.8529 44.4827 40.8255 44.492 40.8255 44.5164C40.8255 44.5406 40.7887 44.5509 40.7439 44.5392C40.699 44.5276 40.6624 44.5367 40.6624 44.5597C40.6624 44.5827 40.6256 44.5918 40.5808 44.5801C40.5359 44.5683 40.4992 44.5774 40.4992 44.6004C40.4992 44.6234 40.4624 44.6325 40.4176 44.6208C40.3728 44.6092 40.3361 44.6183 40.3361 44.6413C40.3361 44.6642 40.2993 44.6734 40.2545 44.6616C40.2096 44.6499 40.1729 44.659 40.1729 44.682C40.1729 44.705 40.1361 44.7141 40.0914 44.7025C40.0465 44.6907 39.9991 44.6984 39.9859 44.7197C39.9729 44.741 39.9269 44.7471 39.884 44.7335C39.8371 44.7187 39.8058 44.7279 39.8058 44.7566C39.8058 44.7874 39.7693 44.7955 39.7039 44.7791C39.6402 44.763 39.602 44.7707 39.602 44.7994C39.602 44.8282 39.5636 44.8357 39.4999 44.8198C39.4412 44.8051 39.398 44.8118 39.398 44.8359C39.398 44.8963 39.2758 44.8869 39.2744 44.8263C39.2736 44.797 39.2485 44.8078 39.215 44.852C39.1781 44.9008 39.1266 44.9207 39.0735 44.9069C39.0277 44.8948 38.9901 44.904 38.9901 44.9271C38.9901 44.9519 38.9408 44.9592 38.8694 44.945C38.803 44.9316 38.7376 44.9386 38.7241 44.9602C38.6886 45.0178 38.5417 45.0085 38.5403 44.9487C38.5393 44.9176 38.5178 44.9255 38.4847 44.9691C38.422 45.0517 38.2727 45.0642 38.2415 44.9895C38.2261 44.9524 38.2046 44.958 38.1623 45.01C38.0888 45.1003 37.9738 45.1014 37.9088 45.0124C37.8628 44.9495 37.8561 44.9512 37.8301 45.0329C37.7952 45.1431 37.5866 45.1577 37.5285 45.0539C37.4943 44.9926 37.4849 44.9947 37.4352 45.0743C37.368 45.182 37.0857 45.2019 37.0472 45.1017C37.0151 45.0179 36.9279 45.025 36.8403 45.1184C36.7216 45.2451 34.9935 45.2364 34.8202 45.1082C34.7095 45.0264 34.6991 45.0254 34.6619 45.0918C34.602 45.1988 34.367 45.186 34.2855 45.071C34.225 44.9859 34.2171 44.9845 34.1765 45.0507C34.1121 45.1555 33.9481 45.1427 33.9165 45.0303C33.8924 44.9446 33.887 44.9433 33.8359 45.01C33.7761 45.0879 33.6065 45.1081 33.6065 45.0372C33.6065 45.0093 33.5607 45.0033 33.4814 45.0208C33.3856 45.0418 33.3427 45.0304 33.2991 44.973C33.2657 44.9289 33.2415 44.9189 33.2407 44.9487C33.2389 45.0224 33.0764 45.0119 33.0764 44.9382C33.0764 44.8871 33.0626 44.8852 32.9958 44.927C32.9278 44.9695 32.9058 44.9648 32.8543 44.8967C32.8205 44.8519 32.7928 44.8389 32.7922 44.8672C32.7907 44.9247 32.6277 44.9386 32.6277 44.8811C32.6277 44.8608 32.591 44.8539 32.5461 44.8655C32.4999 44.8776 32.4646 44.8668 32.4646 44.8406C32.4646 44.8114 32.4266 44.8037 32.3626 44.8198C32.304 44.8345 32.2607 44.8278 32.2607 44.804C32.2607 44.7813 32.2239 44.7723 32.1792 44.7839C32.1343 44.7957 32.0976 44.7865 32.0976 44.7636C32.0976 44.7406 32.0608 44.7314 32.016 44.7432C31.9711 44.7549 31.9343 44.7487 31.9343 44.7292C31.9343 44.7098 31.8747 44.6897 31.802 44.6845C31.7293 44.6794 31.6639 44.6574 31.6567 44.6358C31.6495 44.6141 31.6173 44.6065 31.5851 44.6189C31.5528 44.6312 31.5265 44.6256 31.5265 44.6064C31.5263 44.5872 31.4676 44.5694 31.3957 44.5667C31.3238 44.5641 31.2585 44.5422 31.2504 44.5181C31.2423 44.4939 31.2095 44.4843 31.1772 44.4965C31.145 44.5089 31.1188 44.4976 31.1188 44.4715C31.1188 44.4454 31.1023 44.434 31.0823 44.4464C31.0381 44.4737 30.6701 44.342 30.6701 44.2988C30.6701 44.282 30.6449 44.2778 30.6142 44.2897C30.5834 44.3014 30.5328 44.2856 30.5016 44.2544C30.4705 44.2234 30.4243 44.2047 30.3991 44.2132C30.3739 44.2215 30.3235 44.1988 30.2874 44.1626C30.2511 44.1263 30.2215 44.1073 30.2215 44.1205C30.2214 44.1563 29.9225 44.0243 29.8921 43.975C29.8775 43.9515 29.8532 43.9359 29.8379 43.94C29.7869 43.9541 29.5689 43.8484 29.5689 43.8096C29.5689 43.7885 29.5505 43.7828 29.5281 43.7966C29.5056 43.8104 29.4874 43.8053 29.4874 43.7854C29.4874 43.7654 29.4636 43.749 29.4348 43.749C29.3651 43.749 28.8348 43.4515 28.8348 43.4124C28.8348 43.3957 28.8103 43.382 28.7803 43.382C28.6226 43.382 27.5886 42.5862 27.025 42.0314C26.2091 41.2279 24.9697 39.4978 25.1098 39.3578C25.1248 39.3428 25.1145 39.3306 25.0869 39.3306C25.0594 39.3306 25.0483 39.3122 25.0621 39.2899C25.076 39.2675 25.0702 39.2491 25.0492 39.2491C24.9987 39.2491 24.6675 38.478 24.6972 38.4299C24.7099 38.4094 24.7048 38.3927 24.6859 38.3927C24.6402 38.3927 24.506 38.0268 24.5347 37.9804C24.547 37.9603 24.5358 37.944 24.5097 37.944C24.4834 37.944 24.4722 37.9176 24.4845 37.8854C24.4969 37.8533 24.4893 37.821 24.4677 37.8137C24.446 37.8065 24.4241 37.7412 24.419 37.6685C24.4138 37.5958 24.3939 37.5363 24.3746 37.5363C24.3554 37.5361 24.3503 37.5086 24.3632 37.4749C24.376 37.4412 24.3668 37.4138 24.3424 37.4138C24.3181 37.4138 24.3078 37.377 24.3195 37.3323C24.3311 37.2874 24.322 37.2507 24.299 37.2507C24.2761 37.2507 24.2669 37.2139 24.2787 37.1691C24.2904 37.1242 24.2813 37.0876 24.2583 37.0876C24.2353 37.0874 24.2262 37.0507 24.238 37.006C24.2496 36.9611 24.2404 36.9244 24.2175 36.9244C24.1945 36.9244 24.1854 36.8876 24.1971 36.8428C24.2089 36.7979 24.1997 36.7613 24.1767 36.7613C24.1538 36.7613 24.1437 36.7153 24.1544 36.6592C24.1653 36.6032 24.1561 36.5573 24.1345 36.5573C24.1127 36.5573 24.1064 36.5116 24.1205 36.4554C24.1377 36.3868 24.1291 36.3532 24.0943 36.3528C24.0588 36.3523 24.0618 36.3397 24.1038 36.3126C24.1429 36.2873 28.7604 36.2726 36.9305 36.2719C45.1005 36.2709 49.7181 36.2563 49.7573 36.231C49.8096 36.1972 49.808 36.1913 49.7471 36.1908C49.6428 36.1899 49.6516 35.9995 49.7573 35.9659C49.8525 35.9357 49.8669 35.864 49.7776 35.864C49.6814 35.864 49.7028 35.6638 49.8083 35.5778C49.8917 35.5097 49.8935 35.5004 49.8287 35.4752C49.7244 35.4345 49.7317 35.1872 49.8388 35.1299C49.9341 35.0789 49.9482 34.9668 49.8592 34.9668C49.7597 34.9668 49.7761 34.5914 49.8797 34.4977C49.976 34.4104 49.9862 34.2916 49.9 34.2586C49.8054 34.2223 49.8135 33.5524 49.9102 33.4158C49.9691 33.3325 49.9816 33.2247 49.9816 32.7992C49.9816 32.3653 49.9703 32.2709 49.9102 32.2046C49.8139 32.0981 49.8057 31.5214 49.9 31.4852C49.9867 31.452 49.9759 31.3466 49.8797 31.2866C49.7725 31.2197 49.7659 30.9431 49.8694 30.861C49.9366 30.8078 49.9354 30.8006 49.849 30.7394C49.7386 30.6612 49.728 30.4914 49.8287 30.4141C49.8952 30.363 49.8939 30.3576 49.8083 30.3335C49.6959 30.3019 49.6792 30.0974 49.7843 30.0387C49.8438 30.0053 49.8408 29.997 49.7592 29.9712C49.68 29.9461 49.6697 29.9215 49.6888 29.804C49.701 29.7282 49.694 29.6556 49.673 29.6427C49.6219 29.6111 49.6241 29.4608 49.6757 29.4608C49.6981 29.4608 49.7165 29.4424 49.7165 29.42C49.7165 29.3976 49.6876 29.3792 49.6522 29.3792C49.6065 29.3792 49.5914 29.347 49.5997 29.267C49.6063 29.2054 49.5973 29.1317 49.5798 29.1036C49.5624 29.0752 49.5597 29.0156 49.5739 28.971C49.5897 28.9208 49.5809 28.8898 49.5509 28.8898C49.519 28.8898 49.5105 28.8489 49.5263 28.7702C49.5414 28.6945 49.532 28.6443 49.5008 28.6329C49.4624 28.619 49.4628 28.5955 49.5028 28.528C49.5464 28.454 49.5443 28.4412 49.4882 28.4412C49.4382 28.4412 49.4284 28.4164 49.4477 28.3392C49.4637 28.2752 49.456 28.2372 49.4271 28.2372C49.4007 28.2372 49.3899 28.2019 49.402 28.1557C49.4138 28.1108 49.4048 28.0741 49.3819 28.0741C49.3582 28.0741 49.3515 28.0308 49.3661 27.9722C49.3822 27.9082 49.3745 27.8702 49.3455 27.8702C49.3191 27.8702 49.3083 27.8349 49.3205 27.7887C49.3322 27.7438 49.3231 27.7071 49.3001 27.7071C49.2771 27.7071 49.268 27.6703 49.2797 27.6255C49.2913 27.5806 49.2822 27.5439 49.2592 27.5439C49.2363 27.5439 49.2271 27.5071 49.2389 27.4624C49.2506 27.4175 49.2416 27.3808 49.2189 27.3808C49.1962 27.3808 49.1879 27.3538 49.2005 27.3209C49.2132 27.2879 49.2047 27.2494 49.1817 27.2352C49.1587 27.2209 49.1497 27.1837 49.1619 27.1523C49.1739 27.121 49.1638 27.0953 49.1394 27.0953C49.1152 27.0953 49.1048 27.0586 49.1166 27.0137C49.1282 26.9688 49.1192 26.9321 49.0965 26.9321C49.0738 26.9321 49.0658 26.9046 49.0787 26.8709C49.0915 26.8372 49.0871 26.8098 49.0687 26.8098C49.0384 26.8098 48.8815 26.3162 48.8808 26.2183C48.8805 26.1959 48.8699 26.1684 48.8571 26.1573C48.8081 26.1141 48.6966 25.7828 48.7189 25.7467C48.7318 25.7257 48.7251 25.7086 48.7037 25.7086C48.6685 25.7086 48.6029 25.5449 48.5972 25.4435C48.596 25.4211 48.5709 25.3773 48.5416 25.3464C48.5122 25.3155 48.498 25.2651 48.5097 25.2343C48.5215 25.2035 48.5174 25.1784 48.5007 25.1784C48.484 25.1784 48.4172 25.0545 48.3523 24.9031C47.3878 22.6516 45.7873 20.5315 43.9455 19.0658C43.6538 18.8338 43.3923 18.6148 43.3643 18.5794C43.3363 18.5439 43.3133 18.5271 43.3133 18.5418C43.3133 18.5567 43.0977 18.4249 42.8341 18.2491C42.5706 18.0733 42.1347 17.805 41.8654 17.6529C41.5963 17.5009 41.3648 17.3593 41.3511 17.3383C41.3374 17.3171 41.3136 17.3034 41.2983 17.3077C41.2491 17.3213 41.0294 17.2168 41.0294 17.1797C41.0294 17.16 41.0155 17.1484 40.9986 17.154C40.9663 17.1647 39.8412 16.6954 39.8058 16.6565C39.7946 16.6441 39.7671 16.633 39.7446 16.6317C39.6432 16.6261 39.4795 16.5603 39.4795 16.5252C39.4795 16.5039 39.4634 16.4965 39.4434 16.5087C39.398 16.5368 39.1533 16.4537 39.1533 16.4102C39.1533 16.3924 39.1303 16.3803 39.1022 16.3832C39.0054 16.3932 38.6231 16.279 38.6231 16.24C38.6231 16.2186 38.6082 16.2101 38.59 16.2213C38.5448 16.2493 38.2153 16.1629 38.2153 16.1231C38.2153 16.1055 38.1785 16.1006 38.1337 16.1124C38.0888 16.1241 38.0521 16.115 38.0521 16.092C38.0521 16.069 38.0153 16.0599 37.9706 16.0715C37.9257 16.0833 37.889 16.073 37.889 16.0487C37.889 16.0243 37.8633 16.0142 37.8318 16.0262C37.8005 16.0384 37.7638 16.0303 37.7503 16.0085C37.7368 15.9866 37.6891 15.9783 37.6442 15.9901C37.5994 16.0017 37.5627 15.9926 37.5627 15.9696C37.5627 15.9466 37.5259 15.9375 37.4812 15.9492C37.4363 15.961 37.3996 15.9518 37.3996 15.9289C37.3996 15.9059 37.3649 15.8961 37.3226 15.9072C37.2802 15.9183 37.2344 15.9092 37.2205 15.8868C37.2068 15.8645 37.1588 15.8559 37.114 15.8677C37.0678 15.8798 37.0325 15.8688 37.0325 15.8426C37.0325 15.8136 36.9945 15.8059 36.9305 15.822C36.8687 15.8374 36.8286 15.8301 36.8286 15.8033C36.8286 15.776 36.7819 15.7685 36.7062 15.7836C36.6296 15.799 36.5839 15.7913 36.5839 15.7633C36.5839 15.7352 36.5381 15.7275 36.4615 15.7429C36.3612 15.7629 36.3392 15.7539 36.3392 15.6929C36.3392 15.635 36.3282 15.6293 36.2901 15.6675C36.2123 15.7452 36.1065 15.7244 36.0745 15.6245C36.0495 15.5469 36.042 15.5437 36.026 15.6042C36.0056 15.6801 35.8089 15.7074 35.8089 15.6343C35.8089 15.6093 35.7471 15.6029 35.6517 15.6181C35.5111 15.6407 35.4915 15.6331 35.4675 15.5473C35.4424 15.4579 35.4367 15.4562 35.3857 15.5226C35.3075 15.6245 35.0905 15.6176 35.0629 15.5124C35.0383 15.4177 34.9525 15.4017 34.9525 15.4921C34.9525 15.592 34.6185 15.5749 34.5541 15.4717C34.4955 15.3779 34.389 15.3639 34.3574 15.4461C34.3254 15.5292 32.2761 15.5299 32.2441 15.4466C32.2136 15.3672 32.1493 15.3763 32.0677 15.4717ZM32.7713 22.5965C32.8153 22.6567 32.8475 22.6598 33.0203 22.6203C33.1639 22.5874 33.2792 22.587 33.4379 22.6189C33.6289 22.6572 33.662 22.6542 33.695 22.5951C33.7539 22.4899 34.0795 22.5007 34.1078 22.6089C34.1325 22.7037 34.2184 22.7196 34.2184 22.6293C34.2184 22.5242 34.448 22.5507 34.4829 22.66C34.508 22.7376 34.5154 22.7408 34.5315 22.6803C34.5518 22.6041 34.7485 22.5771 34.7485 22.6504C34.7485 22.6745 34.7917 22.6812 34.8504 22.6665C34.9141 22.6506 34.9525 22.6581 34.9525 22.6869C34.9525 22.7156 34.9907 22.7233 35.0544 22.7072C35.118 22.6913 35.1564 22.699 35.1564 22.7277C35.1564 22.7563 35.1947 22.764 35.2583 22.7481C35.3169 22.7333 35.3604 22.7401 35.3604 22.7639C35.3604 22.7866 35.397 22.7956 35.4419 22.784C35.4867 22.7722 35.5235 22.7813 35.5235 22.8043C35.5235 22.8273 35.5602 22.8364 35.6051 22.8247C35.6524 22.8123 35.6866 22.8234 35.6866 22.8513C35.6866 22.8777 35.7014 22.8901 35.7197 22.8788C35.769 22.8483 36.0945 22.9391 36.0945 22.9834C36.0945 23.0044 36.1116 23.011 36.1325 22.9981C36.1702 22.9748 36.7888 23.203 36.8283 23.2548C36.8397 23.2697 36.8856 23.2881 36.9305 23.2958C37.0368 23.3138 37.5627 23.5892 37.5627 23.6268C37.5627 23.6427 37.5869 23.6558 37.6164 23.6558C37.8994 23.6558 39.3058 24.8502 39.8893 25.5863C40.4209 26.2568 41.2594 27.8103 41.1689 27.9569C41.1569 27.9765 41.1683 27.9925 41.1945 27.9925C41.2206 27.9925 41.2314 28.0201 41.2185 28.0537C41.2057 28.0874 41.2148 28.1149 41.239 28.1149C41.2631 28.1149 41.2722 28.1423 41.2593 28.176C41.2464 28.2097 41.2555 28.2372 41.2797 28.2372C41.3038 28.2372 41.313 28.2648 41.3 28.2984C41.2872 28.3321 41.2964 28.3596 41.3205 28.3596C41.3447 28.3596 41.3538 28.387 41.3409 28.4207C41.328 28.4544 41.3374 28.4819 41.3616 28.4819C41.386 28.4819 41.3963 28.5186 41.3846 28.5635C41.3729 28.6084 41.3819 28.6451 41.4046 28.6451C41.4273 28.6451 41.4354 28.6726 41.4225 28.7063C41.4095 28.7399 41.4189 28.7675 41.4432 28.7675C41.4676 28.7675 41.4779 28.8042 41.4662 28.8491C41.4544 28.8938 41.4634 28.9306 41.4863 28.9306C41.51 28.9306 41.5167 28.974 41.5021 29.0326C41.486 29.0965 41.4937 29.1345 41.5227 29.1345C41.549 29.1345 41.5599 29.1699 41.5477 29.2161C41.536 29.2609 41.545 29.2976 41.5678 29.2976C41.5916 29.2976 41.5983 29.341 41.5836 29.3996C41.5676 29.4635 41.5753 29.5016 41.6043 29.5016C41.6318 29.5016 41.6426 29.5431 41.6311 29.6035C41.6204 29.6595 41.6275 29.7055 41.6468 29.7055C41.7098 29.7055 41.6836 29.8635 41.614 29.9025C41.554 29.9361 41.5564 29.9437 41.6345 29.9684C41.7271 29.9978 41.7374 30.0338 41.697 30.1847L41.6724 30.2765H24.1162L24.1127 30.1542C24.1107 30.0868 24.1245 30.0317 24.1435 30.0317C24.1623 30.0317 24.168 29.9951 24.1564 29.9502C24.1439 29.9025 24.1551 29.8686 24.1833 29.8686C24.213 29.8686 24.2216 29.8373 24.2057 29.787C24.1915 29.7421 24.1976 29.7055 24.2196 29.7055C24.2413 29.7055 24.2496 29.6688 24.238 29.6239C24.2262 29.579 24.2353 29.5423 24.2583 29.5423C24.2813 29.5423 24.2904 29.5057 24.2787 29.4608C24.2663 29.4134 24.2774 29.3792 24.3053 29.3792C24.3317 29.3792 24.343 29.3627 24.3306 29.3426C24.2994 29.2923 24.5525 28.5228 24.6003 28.5228C24.6214 28.5228 24.629 28.5069 24.617 28.4875C24.5881 28.4409 24.7176 28.1149 24.7648 28.1149C24.7852 28.1149 24.7913 28.0977 24.7783 28.0767C24.75 28.0309 24.9209 27.6662 24.9708 27.6662C24.99 27.6662 24.9953 27.6494 24.9827 27.6288C24.9699 27.6082 24.9825 27.5664 25.0108 27.536C25.039 27.5056 25.0683 27.4539 25.0756 27.421C25.083 27.388 25.1106 27.3475 25.1368 27.3308C25.163 27.3141 25.1694 27.3002 25.1509 27.2998C25.0701 27.2983 25.6797 26.3455 26.0997 25.8169C26.6065 25.1792 27.9441 23.9853 28.0668 24.0611C28.0854 24.0726 28.1007 24.0641 28.1007 24.0423C28.1007 23.9956 28.5055 23.7383 28.5798 23.7377C28.6079 23.7375 28.6308 23.724 28.6308 23.7078C28.6308 23.6207 30.1793 22.9451 30.2621 22.9963C30.2847 23.0103 30.3031 23.0043 30.3031 22.983C30.3031 22.9407 30.566 22.8727 30.6802 22.8855C30.7195 22.8899 30.7516 22.8734 30.7516 22.8488C30.7516 22.8243 30.7792 22.8148 30.8128 22.8277C30.8465 22.8405 30.874 22.8313 30.874 22.8072C30.874 22.7807 30.9145 22.7734 30.976 22.7888C31.0399 22.8048 31.0779 22.7971 31.0779 22.7682C31.0779 22.7418 31.1133 22.731 31.1595 22.7431C31.2044 22.7549 31.241 22.7458 31.241 22.723C31.241 22.6993 31.2844 22.6926 31.343 22.7072C31.4073 22.7234 31.445 22.7156 31.445 22.6862C31.445 22.6561 31.4884 22.6482 31.5673 22.664C31.6364 22.6778 31.6897 22.6712 31.6897 22.6487C31.6897 22.5766 31.8867 22.6053 31.9066 22.6803C31.9228 22.7408 31.9303 22.7376 31.9552 22.66C31.991 22.5484 32.1657 22.5342 32.2406 22.6367C32.2866 22.6995 32.2947 22.6978 32.3382 22.6162C32.3993 22.5023 32.6926 22.489 32.7713 22.5965Z" fill="#049CFB"/>
<path fill-rule="evenodd" clip-rule="evenodd" d="M24.0059 0.533549C23.9979 0.54151 23.9455 0.556388 23.8894 0.566568C23.8334 0.576748 23.6338 0.631302 23.446 0.687813C23.2582 0.744455 23.0618 0.800183 23.0096 0.811668C22.8765 0.841163 21.4005 1.32314 21.3508 1.35342C21.3283 1.36712 21.2917 1.38161 21.2692 1.38565C21.2336 1.39205 20.7713 1.56184 20.4739 1.67774C20.4178 1.69953 20.3584 1.72015 20.3418 1.72355C20.3254 1.72694 20.2245 1.76714 20.1176 1.81295C19.7708 1.96147 19.6853 1.99762 19.2096 2.1956C18.8087 2.3624 16.7392 3.36172 16.5586 3.47579C16.5045 3.50985 15.741 3.94262 15.156 4.27073C15.0414 4.33494 14.9384 4.39915 14.9272 4.41351C14.916 4.42773 14.8426 4.47432 14.764 4.517C13.7859 5.04883 11.5772 6.68322 10.1274 7.94813C9.06215 8.87737 7.26972 10.7118 6.5459 11.6134C6.47869 11.6972 6.34596 11.8517 6.25121 11.9568C6.15633 12.0617 6.07828 12.1588 6.07776 12.1722C6.07698 12.194 6.02242 12.2615 5.81765 12.4943C5.78803 12.528 5.71951 12.6198 5.66548 12.6983C5.61131 12.7768 5.5441 12.8557 5.51617 12.8736C5.48811 12.8916 5.46514 12.9309 5.46514 12.9611C5.46514 12.9912 5.4376 13.0264 5.40393 13.0394C5.37026 13.0522 5.34285 13.089 5.34285 13.1209C5.34285 13.1528 5.31532 13.1896 5.28164 13.2025C5.24797 13.2153 5.22043 13.2525 5.22043 13.285C5.22043 13.3175 5.20647 13.3501 5.1895 13.3577C5.14891 13.3756 4.89416 13.7016 4.89416 13.7358C4.89416 13.7503 4.84796 13.8119 4.79132 13.8727C4.7348 13.9334 4.66615 14.0335 4.63862 14.0952C4.61121 14.1568 4.57493 14.2073 4.55796 14.2073C4.541 14.2073 4.52716 14.2333 4.52716 14.2651C4.52716 14.2968 4.51111 14.3289 4.49153 14.3365C4.45381 14.3509 3.95618 15.0837 3.95618 15.1247C3.95605 15.138 3.92394 15.1835 3.88479 15.2258C3.8455 15.2682 3.77672 15.373 3.73196 15.4586C3.68706 15.5443 3.62742 15.6386 3.59936 15.6682C3.5713 15.6979 3.54833 15.7468 3.54833 15.7771C3.54833 15.8072 3.53358 15.838 3.51557 15.8455C3.47211 15.8635 3.1812 16.3473 3.1812 16.4015C3.1812 16.4247 3.16606 16.4497 3.14766 16.4573C3.11164 16.4718 2.73055 17.1368 2.71906 17.205C2.71528 17.2275 2.7021 17.255 2.6897 17.2662C2.63632 17.3145 2.40845 17.7556 2.43651 17.7562C2.4536 17.7565 2.44512 17.771 2.41771 17.7884C2.06246 18.0142 0 23.175 0 23.8382V24.118L4.33335 24.1174C6.71674 24.117 8.68785 24.1033 8.71356 24.0867C8.76942 24.051 9.26405 22.9355 9.22438 22.9346C9.20937 22.9343 9.21524 22.9205 9.23769 22.904C9.26014 22.8876 9.4251 22.5712 9.60416 22.2011C9.78336 21.831 9.95171 21.5006 9.97821 21.467C10.0048 21.4333 10.0326 21.3782 10.0401 21.3447C10.0474 21.311 10.0637 21.2742 10.0762 21.2631C10.0976 21.2439 10.4987 20.5557 10.6693 20.2453C10.7119 20.1679 10.7698 20.0794 10.7977 20.0487C10.8257 20.018 10.8487 19.9666 10.8487 19.9346C10.8487 19.9025 10.8671 19.8764 10.8896 19.8764C10.9119 19.8764 10.9303 19.8572 10.9303 19.8339C10.9303 19.8105 10.9624 19.7566 11.0017 19.7143C11.041 19.6719 11.1096 19.5671 11.1542 19.4815C11.1989 19.3959 11.2459 19.3165 11.2587 19.3054C11.3197 19.2518 11.6644 18.7393 11.6644 18.702C11.6644 18.6787 11.6784 18.6535 11.6953 18.646C11.7367 18.6278 11.9907 18.3018 11.9907 18.2668C11.9907 18.2516 12.0137 18.2152 12.0417 18.1859C12.0696 18.1566 12.1202 18.0908 12.1538 18.0398C12.1875 17.9886 12.2471 17.918 12.2864 17.8829C12.3256 17.8478 12.3578 17.8047 12.3578 17.7873C12.3578 17.7699 12.3899 17.721 12.4291 17.6789C12.4684 17.6366 12.5373 17.5543 12.582 17.4957C12.6269 17.4372 12.7004 17.3462 12.7452 17.2934C12.7901 17.2406 12.8818 17.1292 12.9492 17.0457C13.0164 16.9621 13.1239 16.8354 13.188 16.7639C13.2521 16.6925 13.3536 16.5789 13.4135 16.5116C14.8643 14.8835 16.485 13.4694 18.2919 12.2553C18.6283 12.0292 18.9226 11.8299 18.9457 11.8124C18.9688 11.7949 19.0513 11.7444 19.1292 11.7002C19.207 11.6559 19.5002 11.4851 19.7806 11.3207C20.3909 10.9624 21.8681 10.2199 22.4928 9.95735C22.7394 9.85359 23.0148 9.73691 23.1045 9.69815C23.1943 9.65926 23.286 9.6222 23.3085 9.61567C23.4191 9.58383 24.5005 9.17741 24.5625 9.1444C24.6299 9.1085 24.6339 8.85988 24.6339 4.80504V0.503662L24.5218 0.506925C24.4601 0.508622 24.4325 0.519323 24.4606 0.530678C24.555 0.568787 24.5329 8.99131 24.4383 9.07235C24.398 9.10681 24.3429 9.12769 24.3159 9.11882C24.289 9.10981 24.2669 9.12169 24.2669 9.14531C24.2669 9.16893 24.2394 9.17768 24.2057 9.16475C24.172 9.15183 24.1445 9.16267 24.1445 9.1889C24.1445 9.215 24.1274 9.22583 24.1064 9.21278C24.0702 9.19047 23.739 9.30205 23.6959 9.35112C23.6847 9.36391 23.6388 9.38075 23.5939 9.38858C23.5491 9.39641 23.5032 9.41481 23.492 9.42943C23.4807 9.44392 23.4532 9.45697 23.4307 9.45814C23.3442 9.46297 23.1657 9.52731 23.1657 9.55355C23.1657 9.56882 23.1332 9.58369 23.0935 9.5867C22.898 9.60144 21.1813 10.402 20.2495 10.9129C17.155 12.6101 14.4201 14.9366 12.2687 17.702C11.786 18.3224 11.1914 19.1753 11.2055 19.2271C11.2111 19.2478 11.1987 19.2646 11.1779 19.2646C11.1242 19.2646 10.2503 20.6595 10.225 20.7854C10.2204 20.8089 10.187 20.8591 10.151 20.8969C10.0687 20.9836 9.02052 23.0896 9.00473 23.2003C8.99833 23.2452 8.97001 23.3061 8.94208 23.3358C8.89732 23.3831 8.8827 23.4436 8.89458 23.5322C8.8964 23.5465 8.88179 23.5695 8.86208 23.5832C8.84224 23.5969 8.77503 23.7137 8.71278 23.8427L8.59962 24.0772H4.34053C0.964214 24.0772 0.0801337 24.0666 0.0746522 24.0262C0.0535095 23.8723 0.0657775 23.6693 0.0961865 23.6693C0.115372 23.6693 0.120462 23.6418 0.107541 23.6081C0.0947509 23.5745 0.103887 23.5471 0.128031 23.5471C0.152176 23.5469 0.161311 23.5195 0.148391 23.4858C0.13547 23.4522 0.144606 23.4246 0.168751 23.4246C0.192895 23.4246 0.202031 23.3971 0.18911 23.3634C0.17632 23.3298 0.185456 23.3023 0.2096 23.3023C0.233745 23.3023 0.242881 23.2748 0.22996 23.2411C0.21704 23.2075 0.220694 23.1799 0.238182 23.1799C0.279815 23.1799 0.410848 22.7691 0.383441 22.7247C0.371825 22.7059 0.383702 22.6905 0.409804 22.6905C0.435906 22.6905 0.446739 22.663 0.433818 22.6293C0.421028 22.5956 0.430164 22.5682 0.454308 22.5682C0.478453 22.5681 0.48798 22.5419 0.475712 22.5096C0.463314 22.4774 0.466707 22.4453 0.483151 22.4382C0.530396 22.418 0.696014 21.9529 0.670565 21.9118C0.658036 21.8915 0.665736 21.8748 0.687662 21.8748C0.724335 21.8748 0.874814 21.5004 0.87625 21.4058C0.876642 21.3833 0.89152 21.3542 0.90953 21.3409C0.92741 21.3277 0.94516 21.2772 0.948814 21.2288C0.952468 21.1804 0.966955 21.1407 0.98092 21.1407C1.00519 21.1407 1.10282 20.8816 1.11169 20.7941C1.11391 20.7716 1.14106 20.7279 1.17199 20.697C1.20292 20.666 1.21858 20.6156 1.20683 20.5848C1.19496 20.554 1.20135 20.529 1.2208 20.529C1.26517 20.5289 1.34792 20.2998 1.31542 20.2673C1.30224 20.2541 1.30994 20.2434 1.33252 20.2434C1.38563 20.2434 1.47647 20.0449 1.44593 19.9957C1.43314 19.975 1.43901 19.9579 1.45911 19.958C1.49331 19.958 1.85456 19.1939 1.88327 19.0607C1.89058 19.0271 1.90794 18.9903 1.92203 18.9792C1.93613 18.9679 2.07134 18.711 2.22247 18.4082C2.3736 18.1053 2.60839 17.6561 2.74412 17.4096C2.87985 17.1634 2.99092 16.9385 2.99092 16.9101C2.99092 16.8816 3.00567 16.8584 3.02381 16.8584C3.04195 16.8582 3.08528 16.8033 3.11999 16.736C3.15484 16.6686 3.17011 16.6137 3.15406 16.6137C3.138 16.6137 3.15288 16.5907 3.18721 16.5626C3.22153 16.5346 3.37475 16.3006 3.52771 16.0427C7.18084 9.8793 13.1517 4.77646 19.9233 2.03064C20.1925 1.9214 20.4188 1.81765 20.4264 1.79977C20.434 1.78202 20.4542 1.77627 20.4715 1.78698C20.503 1.80642 21.0474 1.61183 21.0857 1.56733C21.0968 1.55427 21.1244 1.54292 21.1468 1.54214C21.2376 1.53861 21.5343 1.4265 21.5343 1.3957C21.5343 1.37756 21.5618 1.37326 21.5955 1.38618C21.6292 1.3991 21.6567 1.38826 21.6567 1.36203C21.6567 1.33593 21.672 1.32405 21.6906 1.33554C21.7358 1.36347 22.0237 1.27407 22.0237 1.23217C22.0237 1.21429 22.0512 1.21012 22.0849 1.22304C22.1186 1.23596 22.1461 1.22682 22.1461 1.20268C22.1461 1.17853 22.1735 1.1694 22.2072 1.18219C22.2409 1.19511 22.2684 1.18597 22.2684 1.16183C22.2684 1.13768 22.296 1.12855 22.3296 1.14147C22.3633 1.15439 22.3908 1.14525 22.3908 1.12111C22.3908 1.09696 22.4182 1.08783 22.4519 1.10062C22.4856 1.11354 22.5131 1.10271 22.5131 1.0766C22.5131 1.0505 22.528 1.03823 22.5461 1.04946C22.5931 1.07843 22.921 0.990207 22.921 0.948574C22.921 0.92965 22.9485 0.92469 22.9822 0.93748C23.0159 0.950401 23.0434 0.945311 23.0434 0.926126C23.0435 0.90681 23.1023 0.88893 23.1742 0.88632C23.2461 0.88371 23.3113 0.861784 23.3194 0.837639C23.3275 0.813495 23.3604 0.803837 23.3926 0.816236C23.4249 0.828504 23.4512 0.82002 23.4512 0.797312C23.4512 0.774603 23.4879 0.765597 23.5328 0.777343C23.5776 0.789089 23.6144 0.779954 23.6144 0.756984C23.6144 0.734014 23.651 0.724878 23.6959 0.736494C23.7407 0.748239 23.7775 0.737929 23.7775 0.713654C23.7775 0.689249 23.8049 0.679982 23.8386 0.692772C23.8723 0.705693 23.8998 0.697732 23.8998 0.675023C23.8998 0.652314 23.9365 0.643309 23.9814 0.654924C24.0263 0.66667 24.0629 0.657534 24.0629 0.634565C24.0629 0.611595 24.0996 0.602459 24.1445 0.614205C24.1894 0.625951 24.2261 0.616815 24.2261 0.593845C24.2261 0.570875 24.2628 0.561739 24.3076 0.573355C24.3546 0.585753 24.3892 0.57466 24.3892 0.547383C24.3892 0.504706 24.047 0.492438 24.0059 0.533549ZM32.436 15.3793C32.2799 15.3903 32.2295 15.4085 32.2449 15.4487C32.2743 15.5251 34.3259 15.5281 34.3553 15.4517C34.3888 15.364 33.2595 15.3213 32.436 15.3793ZM31.7837 15.4194C31.6906 15.431 31.6597 15.4525 31.6759 15.4944C31.7109 15.5858 31.9835 15.57 32.0677 15.4717C32.1444 15.382 32.1195 15.3775 31.7837 15.4194ZM34.5503 15.4657C34.6181 15.5743 34.9525 15.5962 34.9525 15.4921C34.9525 15.4584 34.9203 15.4306 34.8811 15.4305C34.8418 15.4302 34.739 15.4183 34.6527 15.404C34.5 15.3788 34.4972 15.3805 34.5503 15.4657ZM31.3304 15.4599C31.2016 15.4846 31.2405 15.5709 31.3869 15.5854C31.4713 15.5937 31.5211 15.5728 31.5575 15.514C31.6125 15.425 31.5684 15.4145 31.3304 15.4599ZM35.0617 15.5078C35.0893 15.6129 35.3367 15.6326 35.3751 15.5328C35.3887 15.4971 35.3756 15.4717 35.3438 15.4717C35.3136 15.4717 35.2327 15.4603 35.1641 15.4466C35.0521 15.4243 35.0415 15.4306 35.0617 15.5078ZM30.874 15.5129C30.773 15.5296 30.5987 15.5554 30.4866 15.57C30.0604 15.6254 29.8544 15.6808 29.8544 15.7396C29.8544 15.7717 29.891 15.798 29.9359 15.798C29.9855 15.798 30.0175 15.7707 30.0175 15.7285C30.0175 15.6746 30.0283 15.6701 30.0664 15.7082C30.1252 15.7669 30.2622 15.7733 30.2622 15.7173C30.2622 15.6949 30.3156 15.6882 30.3846 15.702C30.4612 15.7174 30.5069 15.7097 30.5069 15.6817C30.5069 15.6531 30.5535 15.6462 30.6353 15.6625C30.7339 15.6822 30.7779 15.6701 30.8237 15.6106C30.8654 15.5561 30.8891 15.5482 30.9025 15.5838C30.9324 15.6635 31.0936 15.6436 31.1499 15.5533C31.2078 15.4607 31.1977 15.4593 30.874 15.5129ZM35.4713 15.555C35.4915 15.6324 35.514 15.6402 35.6517 15.6181C35.7471 15.6029 35.8089 15.6093 35.8089 15.6343C35.8089 15.657 35.8549 15.6756 35.9108 15.6756C35.9743 15.6756 36.0129 15.6524 36.0129 15.6143C36.0129 15.5531 35.9988 15.5475 35.8089 15.5322C35.7528 15.5278 35.6488 15.5111 35.5775 15.4953C35.4591 15.469 35.4501 15.474 35.4713 15.555ZM36.0823 15.6335C36.1062 15.7254 36.2144 15.743 36.2901 15.6675C36.3282 15.6293 36.3392 15.635 36.3392 15.6929C36.3392 15.7539 36.3612 15.7629 36.4615 15.7429C36.5381 15.7275 36.5839 15.7352 36.5839 15.7633C36.5839 15.7913 36.6296 15.799 36.7062 15.7836C36.7819 15.7685 36.8286 15.776 36.8286 15.8033C36.8286 15.8301 36.8687 15.8374 36.9305 15.822C36.9945 15.8059 37.0325 15.8136 37.0325 15.8426C37.0325 15.8688 37.0678 15.8798 37.114 15.8677C37.1588 15.8559 37.2068 15.8645 37.2205 15.8868C37.2344 15.9092 37.2802 15.9183 37.3226 15.9072C37.3649 15.8961 37.3996 15.9059 37.3996 15.9289C37.3996 15.9518 37.4363 15.961 37.4812 15.9492C37.5259 15.9375 37.5627 15.9466 37.5627 15.9696C37.5627 15.9926 37.5994 16.0017 37.6442 15.9901C37.6891 15.9783 37.7368 15.9866 37.7503 16.0085C37.7638 16.0303 37.8005 16.0384 37.8318 16.0262C37.8633 16.0142 37.889 16.0243 37.889 16.0487C37.889 16.073 37.9257 16.0833 37.9706 16.0715C38.0153 16.0599 38.0521 16.069 38.0521 16.092C38.0521 16.115 38.0888 16.1241 38.1337 16.1124C38.1785 16.1006 38.2153 16.1055 38.2153 16.1231C38.2153 16.1629 38.5448 16.2493 38.59 16.2213C38.6082 16.2101 38.6231 16.2186 38.6231 16.24C38.6231 16.279 39.0054 16.3932 39.1022 16.3832C39.1303 16.3803 39.1533 16.3924 39.1533 16.4102C39.1533 16.4537 39.398 16.5368 39.4434 16.5087C39.4634 16.4965 39.4795 16.5039 39.4795 16.5252C39.4795 16.5603 39.6432 16.6261 39.7446 16.6317C39.7671 16.633 39.7946 16.6441 39.8058 16.6565C39.8412 16.6954 40.9663 17.1647 40.9986 17.154C41.0155 17.1484 41.0294 17.16 41.0294 17.1797C41.0294 17.2168 41.2491 17.3213 41.2983 17.3077C41.3136 17.3034 41.3374 17.3171 41.3511 17.3383C41.3648 17.3593 41.5963 17.5009 41.8654 17.6529C42.1347 17.805 42.5706 18.0733 42.8341 18.2491C43.0977 18.4249 43.3133 18.5567 43.3133 18.5418C43.3133 18.5271 43.3363 18.5439 43.3643 18.5794C43.3923 18.6148 43.6538 18.8338 43.9455 19.0658C45.7873 20.5315 47.3878 22.6516 48.3523 24.9031C48.4172 25.0545 48.484 25.1784 48.5007 25.1784C48.5174 25.1784 48.5215 25.2035 48.5097 25.2343C48.498 25.2651 48.5122 25.3155 48.5416 25.3464C48.5709 25.3773 48.596 25.4211 48.5972 25.4435C48.6029 25.5449 48.6685 25.7086 48.7037 25.7086C48.7251 25.7086 48.7318 25.7257 48.7189 25.7467C48.6966 25.7828 48.8081 26.1141 48.8571 26.1573C48.8699 26.1684 48.8805 26.1959 48.8808 26.2183C48.8815 26.3162 49.0384 26.8098 49.0687 26.8098C49.0871 26.8098 49.0915 26.8372 49.0787 26.8709C49.0658 26.9046 49.0738 26.9321 49.0965 26.9321C49.1192 26.9321 49.1282 26.9688 49.1166 27.0137C49.1048 27.0586 49.1152 27.0953 49.1394 27.0953C49.1638 27.0953 49.1739 27.121 49.1619 27.1523C49.1497 27.1837 49.1587 27.2209 49.1817 27.2352C49.2047 27.2494 49.2132 27.2879 49.2005 27.3209C49.1879 27.3538 49.1962 27.3808 49.2189 27.3808C49.2416 27.3808 49.2506 27.4175 49.2389 27.4624C49.2271 27.5071 49.2363 27.5439 49.2592 27.5439C49.2822 27.5439 49.2913 27.5806 49.2797 27.6255C49.268 27.6703 49.2771 27.7071 49.3001 27.7071C49.3231 27.7071 49.3322 27.7438 49.3205 27.7887C49.3083 27.8349 49.3191 27.8702 49.3455 27.8702C49.3745 27.8702 49.3822 27.9082 49.3661 27.9722C49.3515 28.0308 49.3582 28.0741 49.3819 28.0741C49.4048 28.0741 49.4138 28.1108 49.402 28.1557C49.3899 28.2019 49.4007 28.2372 49.4271 28.2372C49.456 28.2372 49.4637 28.2752 49.4477 28.3392C49.4284 28.4164 49.4382 28.4412 49.4882 28.4412C49.5443 28.4412 49.5464 28.454 49.5028 28.528C49.4628 28.5955 49.4624 28.619 49.5008 28.6329C49.532 28.6443 49.5414 28.6945 49.5263 28.7702C49.5105 28.8489 49.519 28.8898 49.5509 28.8898C49.5809 28.8898 49.5897 28.9208 49.5739 28.971C49.5597 29.0156 49.5624 29.0752 49.5798 29.1036C49.5973 29.1317 49.6063 29.2054 49.5997 29.267C49.5914 29.347 49.6065 29.3792 49.6522 29.3792C49.6876 29.3792 49.7165 29.3976 49.7165 29.42C49.7165 29.4424 49.6981 29.4608 49.6757 29.4608C49.6234 29.4608 49.6223 29.6112 49.6744 29.6435C49.6961 29.6569 49.7026 29.724 49.6889 29.7928C49.6719 29.8775 49.6821 29.9293 49.7207 29.9537C49.8186 30.0156 49.8486 29.9948 49.821 29.8844C49.8062 29.8258 49.7849 29.6835 49.7737 29.5683C49.7625 29.4531 49.7442 29.3323 49.7331 29.2998C49.722 29.2675 49.7034 29.1573 49.6916 29.0551C49.5953 28.215 49.1149 26.4839 48.6498 25.3007C48.4332 24.75 47.8839 23.5878 47.8401 23.5878C47.8253 23.5878 47.8129 23.5648 47.8125 23.5367C47.8117 23.4738 47.3914 22.7569 47.3443 22.7381C47.3256 22.7306 47.3102 22.7063 47.3102 22.684C47.3102 22.632 46.9027 22.022 46.856 22.004C46.8367 21.9965 46.8208 21.9722 46.8208 21.9499C46.8208 21.9149 46.542 21.5262 46.3866 21.3447C46.3579 21.311 46.2889 21.2284 46.2335 21.1611C44.2361 18.7375 40.9276 16.6075 38.256 16.0256C38.1999 16.0133 37.9011 15.9396 37.5921 15.8615C37.2829 15.7836 36.9617 15.7101 36.8783 15.6984C36.7948 15.6866 36.6348 15.6587 36.5227 15.6364C36.053 15.5431 36.0586 15.5432 36.0823 15.6335ZM29.63 15.7203C29.5628 15.7411 29.4362 15.7676 29.3489 15.7792C29.2616 15.7908 29.1732 15.8108 29.1526 15.8234C29.1321 15.8362 29.0567 15.8555 28.9852 15.8665C28.7944 15.8959 27.9814 16.1197 27.892 16.1674C27.8497 16.1902 27.8151 16.2001 27.8151 16.1896C27.8151 16.0976 26.0048 16.8137 25.0722 17.2746C22.7818 18.4065 20.4676 20.258 19.1484 22.0142C19.1035 22.0738 19.0375 22.1541 19.0017 22.1925C18.8601 22.3441 18.3531 23.0472 18.3531 23.0917C18.3531 23.1178 18.3347 23.1392 18.3124 23.1392C18.2899 23.1392 18.2715 23.1666 18.2715 23.2003C18.2715 23.234 18.2531 23.2615 18.2308 23.2615C18.2084 23.2615 18.19 23.289 18.19 23.3227C18.19 23.3564 18.1716 23.3839 18.1492 23.3839C18.1268 23.3839 18.1084 23.4113 18.1084 23.445C18.1084 23.4787 18.093 23.5062 18.0742 23.5062C18.0554 23.5062 18.0049 23.5794 17.962 23.6688C17.9191 23.7583 17.8745 23.8317 17.8628 23.832C17.8511 23.8322 17.7961 23.9197 17.7405 24.0262C17.6849 24.1328 17.6281 24.2291 17.6143 24.2403C17.5722 24.2744 17.398 24.6256 17.4068 24.6584C17.4113 24.6752 17.3957 24.689 17.3719 24.689C17.3482 24.689 17.339 24.7057 17.3517 24.7262C17.3643 24.7468 17.3585 24.7697 17.3386 24.7772C17.2854 24.7973 16.8842 25.6143 16.6234 26.2335C16.115 27.4414 15.5564 29.3159 15.4417 30.1992C15.4317 30.2754 15.4137 30.3652 15.4016 30.3989C15.3895 30.4324 15.3714 30.5426 15.3615 30.6436C15.3516 30.7445 15.3307 30.8763 15.3152 30.9363C15.2897 31.0342 15.2963 31.0432 15.3765 31.0222C15.4526 31.0024 15.4628 30.9781 15.4439 30.8619C15.4304 30.7787 15.4387 30.7252 15.465 30.7252C15.4914 30.7252 15.4988 30.6773 15.4839 30.6027C15.4685 30.5261 15.4762 30.4804 15.5043 30.4804C15.5324 30.4804 15.5401 30.4346 15.5247 30.358C15.5095 30.2823 15.5171 30.2357 15.5444 30.2357C15.5711 30.2357 15.5784 30.1955 15.563 30.1337C15.547 30.0701 15.5547 30.0317 15.5834 30.0317C15.6121 30.0317 15.6197 29.9934 15.6037 29.9298C15.5878 29.8661 15.5955 29.8279 15.6241 29.8279C15.6528 29.8279 15.6605 29.7895 15.6446 29.7258C15.6285 29.6619 15.6362 29.6239 15.6652 29.6239C15.6916 29.6239 15.7024 29.5885 15.6903 29.5423C15.6785 29.4974 15.6875 29.4608 15.7104 29.4608C15.7341 29.4608 15.7408 29.4174 15.7262 29.3588C15.7101 29.2949 15.7178 29.2569 15.7468 29.2569C15.7732 29.2569 15.784 29.2215 15.7718 29.1753C15.7601 29.1304 15.7692 29.0938 15.7922 29.0938C15.8152 29.0938 15.8243 29.057 15.8126 29.0122C15.801 28.9673 15.8101 28.9306 15.8331 28.9306C15.856 28.9305 15.8652 28.8938 15.8534 28.8489C15.8417 28.8042 15.8507 28.7674 15.8734 28.7675C15.8961 28.7675 15.9044 28.7405 15.8918 28.7076C15.8791 28.6746 15.8876 28.6361 15.9106 28.6218C15.9336 28.6076 15.9426 28.5704 15.9304 28.539C15.9184 28.5076 15.9283 28.4819 15.9525 28.4819C15.9766 28.4819 15.986 28.455 15.9734 28.422C15.9607 28.3891 15.9692 28.3505 15.9921 28.3364C16.0151 28.3222 16.0241 28.2849 16.012 28.2535C16 28.2221 16.0099 28.1965 16.034 28.1965C16.0582 28.1965 16.0673 28.169 16.0544 28.1353C16.0415 28.1016 16.0464 28.0741 16.0655 28.0741C16.1071 28.0741 16.1954 27.7462 16.1664 27.6993C16.1552 27.6811 16.1619 27.6662 16.1817 27.6662C16.22 27.6662 16.3764 27.231 16.3684 27.1463C16.3658 27.1182 16.3781 27.0953 16.3956 27.0953C16.4252 27.0953 16.4899 26.9227 16.4951 26.8302C16.4963 26.8077 16.5094 26.7802 16.5239 26.769C16.5385 26.7578 16.5569 26.7119 16.5647 26.667C16.5725 26.6221 16.5912 26.5761 16.6063 26.5647C16.6439 26.536 16.8072 26.1164 16.7807 26.1164C16.7689 26.1164 16.7791 26.0934 16.8034 26.0654C16.8277 26.0375 16.9818 25.7383 17.1457 25.4008C18.612 22.3837 21.0836 19.6869 23.8693 18.0646C23.9758 18.0026 24.0629 17.934 24.0629 17.9124C24.0629 17.8908 24.0813 17.8844 24.1038 17.8983C24.1261 17.9121 24.1445 17.904 24.1445 17.8803C24.1445 17.8565 24.1582 17.8393 24.175 17.842C24.2476 17.8534 24.2977 17.8321 24.3815 17.7539C24.4306 17.7083 24.4708 17.6808 24.4708 17.6931C24.4708 17.7053 24.7415 17.5806 25.0723 17.416C25.4033 17.2515 25.7978 17.0638 25.9492 16.9989C26.1006 16.9341 26.2246 16.8672 26.2246 16.8505C26.2246 16.8338 26.2497 16.8298 26.2805 16.8415C26.3113 16.8533 26.3619 16.8375 26.393 16.8064C26.4241 16.7752 26.4702 16.7567 26.4954 16.7651C26.5207 16.7735 26.5664 16.7566 26.5971 16.7276C26.6277 16.6985 26.6711 16.6737 26.6935 16.6725C26.7905 16.667 26.9587 16.6018 26.9587 16.5697C26.9587 16.5504 26.9861 16.5451 27.0198 16.5581C27.0535 16.571 27.081 16.5619 27.081 16.5377C27.081 16.5136 27.1085 16.5044 27.1422 16.5172C27.1759 16.5301 27.2034 16.5193 27.2034 16.4932C27.2034 16.4671 27.2187 16.4552 27.2376 16.4668C27.282 16.4942 27.6928 16.3632 27.6928 16.3216C27.6928 16.3041 27.7202 16.3004 27.7539 16.3134C27.7876 16.3263 27.8151 16.3211 27.8153 16.3019C27.8153 16.2827 27.8735 16.2628 27.9447 16.2578C28.0159 16.2528 28.0846 16.2344 28.0976 16.217C28.1105 16.1996 28.1761 16.1795 28.2433 16.1723C28.3107 16.1651 28.3712 16.1441 28.3779 16.1257C28.3845 16.1071 28.4258 16.1014 28.4696 16.1129C28.5134 16.1244 28.5493 16.115 28.5493 16.092C28.5493 16.069 28.5859 16.0599 28.6308 16.0715C28.6757 16.0833 28.7124 16.073 28.7124 16.0487C28.7124 16.0243 28.7381 16.0142 28.7694 16.0262C28.8009 16.0384 28.8376 16.0303 28.851 16.0085C28.8646 15.9866 28.9123 15.9783 28.9571 15.9901C29.002 16.0017 29.0387 15.9926 29.0387 15.9696C29.0387 15.9466 29.0753 15.9375 29.1202 15.9492C29.1651 15.961 29.2018 15.9526 29.2018 15.9307C29.2018 15.9088 29.2477 15.8995 29.3037 15.9103C29.3599 15.921 29.4058 15.9118 29.4058 15.8898C29.4058 15.8679 29.4516 15.8588 29.5077 15.8695C29.5637 15.8802 29.6097 15.8716 29.6097 15.8504C29.6097 15.8292 29.6504 15.8132 29.7001 15.8151C29.7553 15.817 29.7963 15.7904 29.8052 15.7469C29.8211 15.6678 29.807 15.6658 29.63 15.7203ZM32.339 22.6149C32.2945 22.6981 32.299 22.7012 32.4242 22.6762C32.4969 22.6617 32.6085 22.6498 32.6724 22.6498C32.7586 22.6498 32.7822 22.6341 32.7649 22.5886C32.7255 22.4861 32.3971 22.5065 32.339 22.6149ZM33.7068 22.5708C33.6698 22.6306 33.6798 22.635 33.919 22.6656C34.1163 22.6906 34.1282 22.6872 34.108 22.6099C34.0841 22.5181 33.759 22.4865 33.7068 22.5708ZM31.9622 22.6537C31.9434 22.7257 31.954 22.7355 32.0289 22.7154C32.0779 22.7024 32.1494 22.6914 32.188 22.691C32.2334 22.6908 32.2499 22.669 32.2346 22.6293C32.1974 22.5326 31.9891 22.5513 31.9622 22.6537ZM33.0764 22.6091C33.0014 22.633 33.0435 22.6426 33.236 22.6456C33.38 22.6478 33.4901 22.643 33.4807 22.6348C33.4379 22.5969 33.168 22.5798 33.0764 22.6091ZM34.2184 22.6293C34.2184 22.663 34.2412 22.6908 34.2693 22.691C34.2973 22.6914 34.3604 22.7024 34.4093 22.7154C34.4841 22.7355 34.4947 22.7257 34.4759 22.6537C34.4487 22.5497 34.2184 22.5279 34.2184 22.6293ZM31.6897 22.6487C31.6897 22.6712 31.6364 22.6778 31.5673 22.664C31.4884 22.6482 31.445 22.6561 31.445 22.6862C31.445 22.7156 31.4073 22.7234 31.343 22.7072C31.2844 22.6926 31.241 22.6993 31.241 22.723C31.241 22.7458 31.2044 22.7549 31.1595 22.7431C31.1133 22.731 31.0779 22.7418 31.0779 22.7682C31.0779 22.7971 31.0399 22.8048 30.976 22.7888C30.9145 22.7734 30.874 22.7807 30.874 22.8072C30.874 22.8313 30.8465 22.8405 30.8128 22.8277C30.7792 22.8148 30.7516 22.8243 30.7516 22.8488C30.7516 22.8734 30.7195 22.8899 30.6802 22.8855C30.566 22.8727 30.3031 22.9407 30.3031 22.983C30.3031 23.0043 30.2847 23.0103 30.2621 22.9963C30.1793 22.9451 28.6308 23.6207 28.6308 23.7078C28.6308 23.724 28.6079 23.7375 28.5798 23.7377C28.5055 23.7383 28.1007 23.9956 28.1007 24.0423C28.1007 24.0641 28.0854 24.0726 28.0668 24.0611C27.9441 23.9853 26.6065 25.1792 26.0997 25.8169C25.6797 26.3455 25.0701 27.2983 25.1509 27.2998C25.1694 27.3002 25.163 27.3141 25.1368 27.3308C25.1106 27.3475 25.083 27.388 25.0756 27.421C25.0683 27.4539 25.039 27.5056 25.0108 27.536C24.9825 27.5664 24.9699 27.6082 24.9827 27.6288C24.9953 27.6494 24.99 27.6662 24.9708 27.6662C24.9209 27.6662 24.75 28.0309 24.7783 28.0767C24.7913 28.0977 24.7852 28.1149 24.7648 28.1149C24.7176 28.1149 24.5881 28.4409 24.617 28.4875C24.629 28.5069 24.6214 28.5228 24.6003 28.5228C24.5525 28.5228 24.2994 29.2923 24.3306 29.3426C24.343 29.3627 24.3317 29.3792 24.3053 29.3792C24.2774 29.3792 24.2663 29.4134 24.2787 29.4608C24.2904 29.5057 24.2813 29.5423 24.2583 29.5423C24.2353 29.5423 24.2262 29.579 24.238 29.6239C24.2496 29.6688 24.2413 29.7055 24.2196 29.7055C24.1976 29.7055 24.1915 29.7421 24.2057 29.787C24.2216 29.8373 24.213 29.8686 24.1833 29.8686C24.1551 29.8686 24.1439 29.9025 24.1564 29.9502C24.168 29.9951 24.1623 30.0317 24.1435 30.0317C24.1245 30.0317 24.1107 30.0868 24.1127 30.1542L24.1162 30.2765H41.6754L41.7034 30.1489C41.7228 30.061 41.7143 30.0107 41.676 29.9865C41.5808 29.9262 41.5498 29.9465 41.5763 30.0521L41.6019 30.1542H32.9112C24.6539 30.1542 24.2216 30.1505 24.241 30.0828C24.2522 30.0435 24.3177 29.7966 24.3865 29.5341C24.5243 29.0083 24.7201 28.4447 24.9103 28.0261C24.9783 27.8762 25.0235 27.7431 25.0107 27.7303C24.9979 27.7175 25.0076 27.7071 25.0322 27.7071C25.0761 27.7071 25.1474 27.5533 25.1314 27.4929C25.127 27.4761 25.1428 27.4624 25.1665 27.4624C25.1903 27.4624 25.1993 27.4455 25.1866 27.4251C25.174 27.4044 25.1776 27.3816 25.1947 27.374C25.2349 27.3564 25.6536 26.6526 25.6536 26.6027C25.6536 26.582 25.6719 26.5651 25.6943 26.5651C25.7168 26.5651 25.7352 26.5459 25.7352 26.5224C25.7352 26.4991 25.781 26.4304 25.8371 26.37C25.8931 26.3094 25.939 26.2369 25.939 26.2086C25.939 26.1804 25.9548 26.1573 25.9743 26.1573C25.9936 26.1573 26.0625 26.0796 26.1272 25.9847C26.4548 25.5047 27.513 24.5344 28.162 24.1188C28.3189 24.0185 28.4565 23.9267 28.4677 23.915C28.6122 23.7642 29.9293 23.2005 30.5478 23.0249C31.1907 22.8423 31.2182 22.8358 31.5266 22.7922C31.8226 22.7503 31.8936 22.7259 31.8936 22.6657C31.8936 22.6323 31.8516 22.6089 31.7917 22.6089C31.7355 22.6089 31.6897 22.6268 31.6897 22.6487ZM34.5447 22.6701C34.5447 22.7038 34.5517 22.7314 34.5605 22.7314C34.5915 22.7314 35.3709 22.8784 35.503 22.9092C37.0366 23.2668 38.7014 24.3227 39.7126 25.5791C39.8873 25.7961 40.0393 25.9829 40.0505 25.9941C40.0619 26.0052 40.0971 26.0649 40.1288 26.1266C40.1607 26.1883 40.2019 26.2388 40.2206 26.2388C40.2392 26.2388 40.2545 26.2568 40.2545 26.2789C40.2545 26.328 40.5012 26.7387 40.5516 26.7735C40.5714 26.7872 40.5878 26.8148 40.588 26.8348C40.5881 26.8546 40.6714 27.0453 40.773 27.2584C41.0719 27.8854 41.4607 29.1516 41.5415 29.762C41.5599 29.9008 41.5796 29.9271 41.6384 29.8907C41.6903 29.8587 41.6972 29.7055 41.6468 29.7055C41.6275 29.7055 41.6204 29.6595 41.6311 29.6035C41.6426 29.5431 41.6318 29.5016 41.6043 29.5016C41.5753 29.5016 41.5676 29.4635 41.5836 29.3996C41.5983 29.341 41.5916 29.2976 41.5678 29.2976C41.545 29.2976 41.536 29.2609 41.5477 29.2161C41.5599 29.1699 41.549 29.1345 41.5227 29.1345C41.4937 29.1345 41.486 29.0965 41.5021 29.0326C41.5167 28.974 41.51 28.9306 41.4863 28.9306C41.4634 28.9306 41.4544 28.8938 41.4662 28.8491C41.4779 28.8042 41.4676 28.7675 41.4432 28.7675C41.4189 28.7675 41.4095 28.7399 41.4225 28.7063C41.4354 28.6726 41.4273 28.6451 41.4046 28.6451C41.3819 28.6451 41.3729 28.6084 41.3846 28.5635C41.3963 28.5186 41.386 28.4819 41.3616 28.4819C41.3374 28.4819 41.328 28.4544 41.3409 28.4207C41.3538 28.387 41.3447 28.3596 41.3205 28.3596C41.2964 28.3596 41.2872 28.3321 41.3 28.2984C41.313 28.2648 41.3038 28.2372 41.2797 28.2372C41.2555 28.2372 41.2464 28.2097 41.2593 28.176C41.2722 28.1423 41.2631 28.1149 41.239 28.1149C41.2148 28.1149 41.2057 28.0874 41.2185 28.0537C41.2314 28.0201 41.2206 27.9925 41.1945 27.9925C41.1683 27.9925 41.1569 27.9765 41.1689 27.9569C41.2594 27.8103 40.4209 26.2568 39.8893 25.5863C39.3058 24.8502 37.8994 23.6558 37.6164 23.6558C37.5869 23.6558 37.5627 23.6427 37.5627 23.6268C37.5627 23.5892 37.0368 23.3138 36.9305 23.2958C36.8856 23.2881 36.8397 23.2697 36.8283 23.2548C36.7888 23.203 36.1702 22.9748 36.1325 22.9981C36.1116 23.011 36.0945 23.0044 36.0945 22.9834C36.0945 22.9391 35.769 22.8483 35.7197 22.8788C35.7014 22.8901 35.6866 22.8777 35.6866 22.8513C35.6866 22.8234 35.6524 22.8123 35.6051 22.8247C35.5602 22.8364 35.5235 22.8273 35.5235 22.8043C35.5235 22.7813 35.4867 22.7722 35.4419 22.784C35.397 22.7956 35.3604 22.7866 35.3604 22.7639C35.3604 22.7401 35.3169 22.7333 35.2583 22.7481C35.1947 22.764 35.1564 22.7563 35.1564 22.7277C35.1564 22.699 35.118 22.6913 35.0544 22.7072C34.9907 22.7233 34.9525 22.7156 34.9525 22.6869C34.9525 22.6581 34.9141 22.6506 34.8504 22.6665C34.7917 22.6812 34.7485 22.6745 34.7485 22.6504C34.7485 22.6276 34.7026 22.6089 34.6466 22.6089C34.5832 22.6089 34.5447 22.632 34.5447 22.6701ZM49.7437 30.0589C49.678 30.1245 49.718 30.3082 49.8027 30.3302C49.8799 30.3505 49.8862 30.3399 49.8638 30.2279C49.8501 30.1593 49.8388 30.0871 49.8388 30.0674C49.8388 30.0254 49.7823 30.0203 49.7437 30.0589ZM49.8083 30.4289C49.7242 30.4577 49.7468 30.6758 49.8388 30.7252C49.9066 30.7613 49.9196 30.7565 49.9156 30.6959C49.9047 30.5321 49.8566 30.4124 49.8083 30.4289ZM49.849 30.8777C49.7611 30.9076 49.7849 31.2275 49.8797 31.2866C49.9522 31.332 49.961 31.3275 49.9588 31.2455C49.9537 31.0439 49.899 30.8606 49.849 30.8777ZM15.2763 31.1989C15.2451 31.3231 15.266 31.3564 15.3537 31.3228C15.4328 31.2923 15.4381 31.0921 15.3598 31.0921C15.3286 31.0921 15.291 31.1402 15.2763 31.1989ZM15.2384 31.5035C15.2011 31.69 15.204 31.6985 15.2964 31.6744C15.3617 31.6573 15.3774 31.625 15.3678 31.5284C15.3509 31.3601 15.2703 31.3446 15.2384 31.5035ZM49.8899 31.4896C49.8133 31.5155 49.8202 32.127 49.8977 32.1914C49.9301 32.2182 49.9637 32.2985 49.9727 32.3697C49.9816 32.441 49.9901 32.3616 49.9914 32.1934C49.9949 31.7608 49.9528 31.4681 49.8899 31.4896ZM15.2127 31.7974C15.2127 31.8301 15.2014 31.9131 15.1877 31.9817C15.1651 32.0945 15.1712 32.1043 15.251 32.0834C15.3239 32.0643 15.3371 32.0351 15.3269 31.9159C15.3152 31.7785 15.2127 31.6723 15.2127 31.7974ZM15.1567 32.3494C15.1073 32.6489 15.119 32.7063 15.2127 32.6216C15.3093 32.5342 15.3269 32.2554 15.2379 32.2212C15.1985 32.2061 15.1741 32.2447 15.1567 32.3494ZM15.1171 33.079C15.0465 33.8265 15.1 35.2207 15.1979 35.1833C15.2762 35.1531 15.2723 34.6137 15.1922 34.4224C15.113 34.2326 15.1139 33.8079 15.1942 33.5722C15.2655 33.3632 15.2613 32.8413 15.1881 32.8171C15.1599 32.8078 15.1334 32.9053 15.1171 33.079ZM49.9678 33.2449C49.9641 33.2962 49.9329 33.3813 49.8983 33.434C49.822 33.5506 49.8285 34.2362 49.9062 34.2619C49.958 34.2791 50.023 33.5464 49.9919 33.2945C49.9821 33.2153 49.9713 33.1932 49.9678 33.2449ZM49.8657 34.5109C49.7787 34.6071 49.7703 34.9668 49.8553 34.9668C49.8948 34.9668 49.9212 34.8907 49.941 34.7194C49.9737 34.4387 49.9615 34.405 49.8657 34.5109ZM49.8283 35.1349C49.741 35.1838 49.7303 35.437 49.8143 35.4692C49.8558 35.4851 49.8788 35.441 49.8989 35.3067C49.9307 35.0947 49.925 35.0808 49.8283 35.1349ZM15.1466 35.5205C15.1772 35.7811 15.1868 35.8032 15.2507 35.7637C15.3312 35.7139 15.3012 35.4395 15.2065 35.3583L15.1188 35.2831L15.1466 35.5205ZM49.7878 35.5965C49.7022 35.6591 49.691 35.864 49.7731 35.864C49.8058 35.864 49.8414 35.802 49.8574 35.7171C49.8901 35.5424 49.8816 35.5278 49.7878 35.5965ZM15.1719 35.9186C15.1719 36.0814 15.225 36.2237 15.2784 36.2032C15.3665 36.1694 15.3487 35.9556 15.2535 35.9047C15.1898 35.8707 15.1719 35.8737 15.1719 35.9186ZM49.7267 35.9725C49.6566 36.0008 49.6613 36.1903 49.7321 36.1903C49.7631 36.1903 49.7996 36.1489 49.8131 36.0984C49.8558 35.9393 49.8456 35.9246 49.7267 35.9725ZM36.9237 36.2717C29.8764 36.283 24.0967 36.3059 24.0799 36.3228C24.0631 36.3396 24.0712 36.3534 24.0977 36.3534C24.129 36.3534 24.1369 36.3895 24.1205 36.4554C24.1064 36.5116 24.1127 36.5573 24.1345 36.5573C24.1561 36.5573 24.1653 36.6032 24.1544 36.6592C24.1437 36.7153 24.1538 36.7613 24.1767 36.7613C24.1997 36.7613 24.2089 36.7979 24.1971 36.8428C24.1854 36.8876 24.1945 36.9244 24.2175 36.9244C24.2404 36.9244 24.2496 36.9611 24.238 37.006C24.2262 37.0507 24.2353 37.0876 24.2583 37.0876C24.2813 37.0876 24.2904 37.1242 24.2787 37.1691C24.2669 37.2139 24.2761 37.2507 24.299 37.2507C24.322 37.2507 24.3311 37.2874 24.3195 37.3323C24.3078 37.377 24.3181 37.4138 24.3424 37.4138C24.3668 37.4138 24.376 37.4412 24.3632 37.4749C24.3503 37.5086 24.3554 37.5361 24.3746 37.5363C24.3939 37.5363 24.4138 37.5958 24.419 37.6685C24.4241 37.7412 24.446 37.8065 24.4677 37.8137C24.4893 37.821 24.4969 37.8533 24.4845 37.8854C24.4722 37.9176 24.4834 37.944 24.5097 37.944C24.5358 37.944 24.547 37.9603 24.5347 37.9804C24.506 38.0268 24.6402 38.3927 24.6859 38.3927C24.7048 38.3927 24.7099 38.4094 24.6972 38.4299C24.6675 38.478 24.9987 39.2491 25.0492 39.2491C25.0702 39.2491 25.076 39.2675 25.0621 39.2899C25.0483 39.3122 25.0594 39.3306 25.0869 39.3306C25.1145 39.3306 25.1248 39.3428 25.1098 39.3578C24.9697 39.4978 26.2091 41.2279 27.025 42.0314C27.5886 42.5862 28.6226 43.382 28.7803 43.382C28.8103 43.382 28.8348 43.3957 28.8348 43.4124C28.8347 43.4515 29.3651 43.749 29.4348 43.749C29.4636 43.749 29.4874 43.7654 29.4874 43.7854C29.4874 43.8053 29.5056 43.8104 29.5281 43.7966C29.5505 43.7828 29.5689 43.7885 29.5689 43.8096C29.5689 43.8484 29.7869 43.9541 29.8379 43.94C29.8532 43.9359 29.8775 43.9515 29.8921 43.975C29.9225 44.0243 30.2214 44.1563 30.2214 44.1205C30.2214 44.1073 30.2511 44.1263 30.2874 44.1626C30.3235 44.1988 30.3739 44.2215 30.3991 44.2132C30.4243 44.2047 30.4705 44.2234 30.5016 44.2544C30.5328 44.2856 30.5834 44.3014 30.6142 44.2897C30.6449 44.2778 30.6701 44.282 30.6701 44.2988C30.6701 44.342 31.0381 44.4737 31.0823 44.4464C31.1023 44.434 31.1188 44.4454 31.1188 44.4715C31.1188 44.4976 31.145 44.5089 31.1772 44.4965C31.2095 44.4843 31.2423 44.4939 31.2504 44.5181C31.2585 44.5422 31.3238 44.5641 31.3957 44.5667C31.4676 44.5694 31.5263 44.5872 31.5265 44.6064C31.5265 44.6256 31.5528 44.6312 31.5851 44.6189C31.6173 44.6065 31.6495 44.6141 31.6567 44.6358C31.6639 44.6574 31.7293 44.6794 31.802 44.6845C31.8747 44.6897 31.9343 44.7098 31.9343 44.7292C31.9343 44.7487 31.9711 44.7549 32.016 44.7432C32.0608 44.7314 32.0976 44.7406 32.0976 44.7636C32.0976 44.7865 32.1343 44.7957 32.1792 44.7839C32.2239 44.7723 32.2607 44.7813 32.2607 44.804C32.2607 44.8278 32.304 44.8345 32.3626 44.8198C32.4266 44.8037 32.4646 44.8114 32.4646 44.8406C32.4646 44.8668 32.4999 44.8776 32.5461 44.8655C32.591 44.8539 32.6277 44.8608 32.6277 44.8811C32.6277 44.9386 32.7907 44.9247 32.7922 44.8672C32.7928 44.8389 32.8205 44.8519 32.8543 44.8967C32.9058 44.9648 32.9278 44.9695 32.9958 44.927C33.0626 44.8852 33.0764 44.8871 33.0764 44.9382C33.0764 45.0119 33.2389 45.0224 33.2407 44.9487C33.2415 44.9189 33.2657 44.9289 33.2991 44.973C33.3427 45.0304 33.3856 45.0418 33.4814 45.0208C33.5607 45.0033 33.6065 45.0093 33.6065 45.0372C33.6065 45.1047 33.7985 45.0896 33.8253 45.0201C33.8413 44.978 33.8205 44.9567 33.7582 44.952C33.5623 44.9369 33.5006 44.9262 32.6917 44.7684C30.855 44.41 29.0076 43.5651 27.7132 42.4911C27.3766 42.2118 26.633 41.5 26.6317 41.4559C26.6313 41.4422 26.5533 41.3478 26.4583 41.246C26.3635 41.1442 26.2399 40.993 26.1837 40.9098C26.1276 40.8267 26.068 40.7586 26.0511 40.7584C26.0343 40.7582 26.0206 40.743 26.0206 40.7246C26.0206 40.7062 25.9184 40.5364 25.7936 40.3475C25.6687 40.1583 25.4819 39.8476 25.3782 39.6569C25.2746 39.4662 25.1703 39.2967 25.1464 39.2803C25.1224 39.2638 25.1159 39.25 25.1317 39.2497C25.1475 39.2493 25.0873 39.0901 24.9979 38.8957C24.9085 38.7013 24.7805 38.3848 24.7133 38.1922C24.6461 37.9996 24.5796 37.8145 24.5655 37.7808C24.5516 37.7472 24.5354 37.698 24.5298 37.6715C24.5242 37.645 24.4645 37.4064 24.3972 37.1412C24.33 36.8761 24.2635 36.6088 24.2497 36.5471L24.2245 36.435H36.912C45.0507 36.435 49.6261 36.4208 49.6736 36.3953C49.7445 36.3573 49.8268 36.2202 49.7661 36.2411C49.7501 36.2467 43.9709 36.2604 36.9237 36.2717ZM15.234 36.4276C15.2502 36.51 15.2676 36.6236 15.2725 36.6797C15.2893 36.8714 15.2943 36.8836 15.3554 36.8836C15.3935 36.8836 15.4166 36.8451 15.4166 36.7816C15.4166 36.7255 15.3986 36.6797 15.3765 36.6797C15.3529 36.6797 15.3465 36.6075 15.3609 36.5021C15.3827 36.343 15.3759 36.3221 15.295 36.301C15.2103 36.2788 15.2065 36.2867 15.234 36.4276ZM15.3143 37.0393C15.3477 37.1725 15.3585 37.1845 15.4139 37.1503C15.4886 37.1041 15.4616 36.9757 15.3721 36.9523C15.2969 36.9326 15.2901 36.9431 15.3143 37.0393ZM15.3528 37.279C15.3674 37.317 15.3885 37.4317 15.3999 37.5339C15.4112 37.6361 15.432 37.7564 15.4461 37.8012C15.4731 37.8869 15.4778 37.9109 15.5162 38.1588C15.6053 38.7351 16.0556 40.2323 16.4144 41.1455C16.6255 41.6831 17.2495 43.0013 17.2927 43.0013C17.3077 43.0013 17.3202 43.0242 17.3205 43.0523C17.3213 43.1152 17.7416 43.8321 17.7888 43.8509C17.8076 43.8585 17.823 43.8838 17.823 43.9074C17.823 43.9676 18.3209 44.7142 18.3609 44.7142C18.3791 44.7142 18.3939 44.7339 18.3939 44.7581C18.3939 44.803 18.735 45.2725 18.8212 45.3464C18.8473 45.3689 18.8858 45.4179 18.9066 45.4555C19.2389 46.0557 21.2725 47.9723 22.4842 48.8269C24.4503 50.2138 27.5061 51.5471 29.5484 51.9094C29.6158 51.9213 29.8441 51.9684 30.0557 52.0142C30.2673 52.0599 30.5007 52.1048 30.574 52.1139C30.6473 52.1231 30.745 52.1424 30.7908 52.1569C30.8795 52.1851 30.8952 52.152 30.8367 52.0598C30.8157 52.0265 30.7652 52.0123 30.7149 52.0254C30.6678 52.0377 30.6293 52.0312 30.6293 52.0108C30.6293 51.9534 30.4663 51.9674 30.4649 52.0249C30.4641 52.0543 30.4391 52.0434 30.4055 51.9992C30.3686 51.9504 30.3172 51.9306 30.264 51.9444C30.2182 51.9564 30.1806 51.9477 30.1806 51.9248C30.1806 51.9011 30.1373 51.8944 30.0787 51.909C30.015 51.9251 29.9768 51.9174 29.9768 51.8887C29.9768 51.8599 29.9384 51.8524 29.8747 51.8683C29.8108 51.8844 29.7728 51.8767 29.7728 51.8476C29.7728 51.8213 29.7374 51.8105 29.6912 51.8226C29.6463 51.8342 29.6097 51.8252 29.6097 51.8025C29.6097 51.7788 29.5663 51.772 29.5077 51.7867C29.4438 51.8028 29.4058 51.7951 29.4058 51.766C29.4058 51.7398 29.3704 51.7289 29.3242 51.7411C29.2793 51.7527 29.2427 51.7435 29.2427 51.7206C29.2427 51.6976 29.2059 51.6885 29.1611 51.7002C29.1162 51.712 29.0795 51.7028 29.0795 51.6798C29.0794 51.6569 29.0436 51.6475 28.9998 51.659C28.9561 51.6703 28.9139 51.6609 28.9062 51.6378C28.8986 51.6148 28.8335 51.5938 28.7616 51.5912C28.6898 51.5886 28.631 51.5705 28.631 51.551C28.6308 51.5316 28.5949 51.5251 28.5512 51.5365C28.5074 51.548 28.4653 51.5385 28.4576 51.5155C28.4499 51.4924 28.3849 51.4714 28.313 51.4688C28.2411 51.4662 28.1824 51.4483 28.1823 51.4291C28.1823 51.4099 28.1547 51.4047 28.121 51.4176C28.0874 51.4306 28.0598 51.4267 28.0598 51.409C28.0598 51.3639 27.6191 51.2301 27.57 51.2604C27.5478 51.2741 27.5297 51.2699 27.5297 51.251C27.5297 51.2052 27.1639 51.071 27.1174 51.0997C27.0973 51.1121 27.081 51.1068 27.081 51.0878C27.081 51.0482 26.7107 50.903 26.6823 50.9315C26.672 50.9419 26.636 50.9229 26.6024 50.8893C26.5687 50.8558 26.5207 50.8352 26.4954 50.8435C26.4702 50.852 26.4241 50.8334 26.393 50.8023C26.3619 50.7711 26.3124 50.7549 26.2831 50.7661C26.2538 50.7774 26.2241 50.7723 26.217 50.7548C26.2016 50.7169 25.1663 50.2509 25.0928 50.2488C25.0647 50.248 25.0418 50.2309 25.0418 50.2109C25.0418 50.191 25.0249 50.185 25.0044 50.1976C24.984 50.2103 24.961 50.2035 24.9535 50.1826C24.946 50.1617 24.9123 50.1388 24.8786 50.1315C24.845 50.1242 24.8083 50.1064 24.7971 50.0922C24.7858 50.0778 24.5839 49.9614 24.3485 49.8334C24.1129 49.7053 23.8605 49.5641 23.7877 49.5196C23.7147 49.475 23.6548 49.4539 23.6544 49.4725C23.6542 49.4912 23.6403 49.4854 23.6239 49.4599C23.6075 49.4341 23.2911 49.2106 22.921 48.9629C21.2507 47.845 19.7913 46.4689 18.6856 44.9691C18.5658 44.8065 18.4481 44.6735 18.424 44.6735C18.3999 44.6735 18.3909 44.6628 18.404 44.6497C18.4169 44.6367 18.2761 44.3936 18.0909 44.1094C17.9057 43.8252 17.6854 43.4688 17.6015 43.3174C17.5176 43.166 17.4289 43.0421 17.4048 43.0421C17.3805 43.0421 17.3719 43.0308 17.3857 43.0169C17.3996 43.0031 17.2864 42.7415 17.1344 42.4358C16.9823 42.13 16.8048 41.7558 16.74 41.6044C16.6751 41.453 16.6083 41.3292 16.5916 41.3292C16.5749 41.3292 16.5708 41.304 16.5826 41.2732C16.5943 41.2424 16.5785 41.1917 16.5475 41.1607C16.5163 41.1295 16.4977 41.0834 16.5061 41.0582C16.5146 41.0329 16.4976 40.9872 16.4686 40.9566C16.4395 40.9259 16.4147 40.8825 16.4136 40.8601C16.4089 40.7758 16.3448 40.5949 16.3196 40.5949C16.3052 40.5949 16.2906 40.5451 16.287 40.4841C16.2834 40.423 16.2615 40.3668 16.2383 40.3591C16.2151 40.3514 16.2062 40.3186 16.2186 40.2865C16.2309 40.2543 16.2213 40.2279 16.1972 40.2279C16.173 40.2279 16.1639 40.2004 16.1767 40.1667C16.1896 40.133 16.1805 40.1056 16.1563 40.1056C16.1322 40.1056 16.1231 40.0781 16.136 40.0444C16.1489 40.0107 16.1398 39.9832 16.1156 39.9832C16.0915 39.9832 16.0823 39.9557 16.0951 39.922C16.108 39.8883 16.0989 39.8609 16.0748 39.8609C16.0506 39.8609 16.0415 39.8334 16.0544 39.7997C16.0673 39.766 16.0592 39.7385 16.0365 39.7385C16.0138 39.7385 16.0048 39.7018 16.0166 39.6569C16.0283 39.612 16.018 39.5754 15.9936 39.5754C15.9693 39.5754 15.9599 39.5478 15.9728 39.5141C15.9858 39.4805 15.9777 39.4531 15.955 39.4531C15.9322 39.4531 15.9232 39.4163 15.935 39.3715C15.9467 39.3266 15.9405 39.2898 15.921 39.2898C15.9016 39.2898 15.8815 39.2302 15.8763 39.1575C15.8712 39.0848 15.8502 39.0198 15.8297 39.0129C15.8092 39.0061 15.8017 38.9647 15.8131 38.9208C15.8246 38.8771 15.8152 38.8412 15.7922 38.8412C15.7692 38.8412 15.7601 38.8046 15.7718 38.7597C15.7836 38.7148 15.7745 38.6781 15.7515 38.6781C15.7285 38.6781 15.7194 38.6414 15.731 38.5965C15.7431 38.5503 15.7323 38.515 15.7061 38.515C15.677 38.515 15.6693 38.477 15.6853 38.413C15.6994 38.3568 15.6931 38.3111 15.6714 38.3111C15.6497 38.3111 15.6406 38.2652 15.6514 38.209C15.6621 38.153 15.652 38.1071 15.6291 38.1071C15.6061 38.1071 15.597 38.0704 15.6087 38.0255C15.6205 37.9806 15.61 37.944 15.5855 37.944C15.5578 37.944 15.5502 37.8978 15.5655 37.8217C15.5813 37.7427 15.5733 37.6993 15.5433 37.6993C15.5138 37.6993 15.5061 37.6615 15.5222 37.5973C15.5381 37.5336 15.5305 37.4954 15.5018 37.4954C15.4726 37.4954 15.4655 37.4565 15.4825 37.389C15.5001 37.3186 15.4901 37.2705 15.4527 37.2469C15.364 37.1907 15.3239 37.2036 15.3528 37.279ZM47.2833 41.4004C46.9504 41.6192 46.6719 41.8119 46.6644 41.8288C46.657 41.8456 46.6353 41.8593 46.6164 41.8593C46.5823 41.8593 46.0853 42.1425 46.0459 42.1843C45.9691 42.2658 44.2325 43.1358 43.6192 43.4001C42.8844 43.7167 42.82 43.7436 42.7627 43.7578C42.7402 43.7634 42.6669 43.7912 42.5995 43.8197C42.5323 43.848 42.468 43.8736 42.4569 43.8763C42.4457 43.8791 42.1703 43.9708 41.845 44.0802C41.5198 44.1897 41.2537 44.2748 41.2537 44.2694C41.2537 44.2642 41.1986 44.2812 41.1313 44.3072C41.0641 44.3331 40.9815 44.3601 40.9478 44.3672C40.9141 44.3742 40.7398 44.4193 40.5603 44.4672C40.3808 44.5151 40.1882 44.5633 40.1321 44.5747C40.076 44.5859 39.8191 44.6392 39.5611 44.6931C39.1795 44.7728 38.0366 44.9579 37.9208 44.9587C37.9047 44.9588 37.9021 44.9865 37.915 45.0201C37.9469 45.1033 38.0912 45.0974 38.1623 45.01C38.2046 44.958 38.2261 44.9524 38.2415 44.9895C38.2727 45.0642 38.422 45.0517 38.4847 44.9691C38.5178 44.9255 38.5393 44.9176 38.5403 44.9487C38.5417 45.0085 38.6886 45.0178 38.7241 44.9602C38.7376 44.9386 38.803 44.9316 38.8694 44.945C38.9408 44.9592 38.9901 44.9519 38.9901 44.9271C38.9901 44.904 39.0277 44.8948 39.0735 44.9069C39.1266 44.9207 39.1781 44.9008 39.215 44.852C39.2485 44.8078 39.2736 44.797 39.2744 44.8263C39.2758 44.8869 39.398 44.8963 39.398 44.8359C39.398 44.8118 39.4412 44.8051 39.4999 44.8198C39.5636 44.8357 39.602 44.8282 39.602 44.7994C39.602 44.7707 39.6402 44.763 39.7039 44.7791C39.7693 44.7955 39.8058 44.7874 39.8058 44.7566C39.8058 44.7279 39.8371 44.7187 39.884 44.7335C39.9269 44.7471 39.9729 44.741 39.9859 44.7197C39.9991 44.6984 40.0465 44.6907 40.0914 44.7025C40.1361 44.7141 40.1729 44.705 40.1729 44.682C40.1729 44.659 40.2096 44.6499 40.2545 44.6616C40.2993 44.6734 40.3361 44.6642 40.3361 44.6413C40.3361 44.6183 40.3728 44.6092 40.4176 44.6208C40.4624 44.6325 40.4992 44.6234 40.4992 44.6004C40.4992 44.5774 40.5359 44.5683 40.5808 44.5801C40.6256 44.5918 40.6624 44.5827 40.6624 44.5597C40.6624 44.5367 40.699 44.5276 40.7439 44.5392C40.7887 44.5509 40.8255 44.5406 40.8255 44.5164C40.8255 44.492 40.8529 44.4827 40.8866 44.4955C40.9202 44.5084 40.9478 44.5004 40.9478 44.4777C40.9478 44.455 40.9845 44.446 41.0294 44.4576C41.0742 44.4694 41.1109 44.4591 41.1109 44.4348C41.1109 44.4104 41.1385 44.4011 41.1721 44.4139C41.2058 44.4268 41.2333 44.4217 41.2333 44.4026C41.2335 44.3832 41.2922 44.3654 41.3641 44.3628C41.436 44.3601 41.5013 44.3382 41.5094 44.3141C41.5175 44.2899 41.5504 44.2803 41.5826 44.2927C41.6148 44.3049 41.6412 44.2954 41.6412 44.2713C41.6412 44.2471 41.6686 44.238 41.7023 44.2508C41.7359 44.2637 41.7635 44.2546 41.7635 44.2304C41.7635 44.2063 41.791 44.1971 41.8247 44.2101C41.8584 44.223 41.8859 44.2138 41.8859 44.1897C41.8859 44.1655 41.9133 44.1564 41.947 44.1692C41.9806 44.1821 42.0082 44.173 42.0082 44.1488C42.0082 44.1247 42.0357 44.1156 42.0694 44.1285C42.1031 44.1414 42.1306 44.1323 42.1306 44.1081C42.1306 44.084 42.158 44.0748 42.1917 44.0876C42.2254 44.1006 42.2529 44.0897 42.2529 44.0636C42.2529 44.0375 42.2699 44.0266 42.2906 44.0393C42.3252 44.0608 42.5314 43.9899 42.5792 43.9402C42.5904 43.9284 42.6179 43.9178 42.6404 43.9167C42.7418 43.9109 42.9054 43.8453 42.9054 43.8102C42.9054 43.7888 42.9218 43.7815 42.9417 43.7937C43.1205 43.9043 45.9666 42.4291 47.3539 41.5069C47.6361 41.3194 47.8792 41.166 47.8944 41.166C47.9095 41.166 47.922 42.9459 47.922 45.1215V49.0772L47.7691 49.1736C47.6849 49.2268 47.3683 49.4053 47.0655 49.5704C46.7627 49.7356 46.5057 49.8805 46.4945 49.8925C46.4833 49.9045 46.4551 49.9176 46.4318 49.9216C46.4086 49.9255 46.118 50.0494 45.7858 50.1968C45.4537 50.3442 45.1652 50.4649 45.1449 50.4649C45.1245 50.4649 45.1078 50.4827 45.1078 50.5043C45.1078 50.5261 45.0826 50.5342 45.052 50.5223C45.0212 50.5106 44.9705 50.5264 44.9393 50.5576C44.9083 50.5886 44.8621 50.6073 44.8369 50.5988C44.8117 50.5905 44.7658 50.6087 44.7349 50.6397C44.7041 50.6705 44.6561 50.6881 44.6282 50.6788C44.6004 50.6696 44.5777 50.683 44.5777 50.7086C44.5777 50.7342 44.5612 50.745 44.5413 50.7327C44.497 50.7053 44.129 50.837 44.129 50.8802C44.129 50.8972 44.1014 50.9003 44.0678 50.8875C44.0341 50.8746 44.0067 50.8837 44.0067 50.9079C44.0067 50.932 43.9792 50.9412 43.9455 50.9282C43.9118 50.9153 43.8843 50.9244 43.8843 50.9486C43.8843 50.9727 43.8567 50.9819 43.8231 50.9691C43.7894 50.9562 43.762 50.9653 43.762 50.9894C43.762 51.0136 43.7345 51.0227 43.7008 51.0098C43.6671 50.9969 43.6396 51.0046 43.6396 51.0269C43.6396 51.0493 43.6166 51.0658 43.5885 51.0637C43.4899 51.0561 43.2317 51.1269 43.2317 51.1615C43.2317 51.1806 43.2042 51.1859 43.1705 51.1729C43.1368 51.16 43.1093 51.1652 43.1093 51.1844C43.1093 51.2036 43.0497 51.2236 42.977 51.2287C42.9043 51.2339 42.8389 51.2557 42.8317 51.2773C42.8245 51.299 42.7923 51.3066 42.7601 51.2943C42.7278 51.2819 42.7016 51.2904 42.7016 51.3131C42.7016 51.3358 42.6648 51.3448 42.62 51.3332C42.5751 51.3215 42.5383 51.3277 42.5383 51.3472C42.5383 51.3666 42.4787 51.3867 42.406 51.3918C42.3333 51.397 42.2683 51.4179 42.2614 51.4385C42.2546 51.459 42.2132 51.4665 42.1694 51.455C42.1256 51.4435 42.0898 51.4529 42.0898 51.4759C42.0898 51.4988 42.0531 51.508 42.0082 51.4963C41.9633 51.4846 41.9266 51.4937 41.9266 51.5167C41.9266 51.5397 41.8899 51.5488 41.845 51.5371C41.8002 51.5253 41.7635 51.5345 41.7635 51.5574C41.7635 51.5804 41.7268 51.5895 41.6819 51.5779C41.6357 51.5658 41.6003 51.5766 41.6003 51.6028C41.6003 51.6319 41.5624 51.6396 41.4984 51.6236C41.4398 51.6088 41.3965 51.6156 41.3965 51.6394C41.3965 51.6621 41.3597 51.6711 41.3149 51.6595C41.27 51.6477 41.2333 51.6569 41.2333 51.6798C41.2333 51.7028 41.1986 51.7125 41.1563 51.7014C41.1139 51.6903 41.0681 51.6996 41.0543 51.7217C41.0406 51.7441 40.9925 51.7527 40.9478 51.7409C40.9016 51.7289 40.8662 51.7398 40.8662 51.766C40.8662 51.7951 40.8282 51.8028 40.7643 51.7867C40.708 51.7726 40.6624 51.7789 40.6624 51.8007C40.6624 51.8224 40.6164 51.8315 40.5603 51.8207C40.498 51.8088 40.4584 51.82 40.4584 51.8495C40.4584 51.8798 40.4269 51.8879 40.3738 51.8709C40.3164 51.8528 40.271 51.8683 40.2323 51.9192C40.1989 51.9633 40.1749 51.9732 40.1741 51.9433C40.1722 51.866 40.0098 51.881 40.0098 51.9585C40.0098 52.0124 39.9986 52.0154 39.9491 51.9743C39.9136 51.9449 39.8587 51.9369 39.8165 51.9552C39.777 51.9723 39.71 51.982 39.6676 51.9766C39.6253 51.9713 39.5751 51.9914 39.5561 52.0214C39.4991 52.1113 39.5156 52.1441 39.6035 52.1161C39.6493 52.1015 39.7549 52.0817 39.8381 52.0719C40.813 51.9576 43.3641 51.2887 44.5368 50.8399C44.593 50.8185 44.648 50.7995 44.6593 50.7977C45.0317 50.7408 47.7374 49.42 47.9813 49.1763C48.0649 49.0926 48.0788 41.1351 47.9954 41.0518C47.9223 40.9787 47.9339 40.9731 47.2833 41.4004ZM33.9203 45.0379C33.944 45.1283 34.1104 45.1568 34.1589 45.0786C34.1935 45.0225 34.183 45.0148 34.0277 44.9815C33.9113 44.9566 33.9006 44.9622 33.9203 45.0379ZM37.6113 44.988C37.5595 44.9979 37.5242 45.0276 37.5328 45.0538C37.5555 45.123 37.7717 45.1388 37.8125 45.0743C37.8853 44.9594 37.847 44.943 37.6113 44.988ZM34.2971 45.076C34.3476 45.1704 34.5976 45.2012 34.6483 45.1193C34.6857 45.0588 34.6723 45.052 34.4486 45.0187C34.2557 44.99 34.2518 44.9914 34.2971 45.076ZM37.1626 45.0294C36.9783 45.0521 37.018 45.1394 37.2192 45.1542C37.344 45.1634 37.3904 45.1478 37.4305 45.0829C37.4865 44.9921 37.4785 44.9905 37.1626 45.0294ZM34.8491 45.1283C34.9785 45.23 36.7355 45.2303 36.8308 45.1286C36.8898 45.0657 36.8196 45.0609 35.8289 45.0609C34.8302 45.0609 34.7687 45.0652 34.8491 45.1283ZM39.2757 52.0544C39.2757 52.0765 39.2233 52.0838 39.1582 52.0707C39.0936 52.0578 39.029 52.0663 39.0147 52.0894C39.0003 52.1126 38.9273 52.1218 38.8526 52.1096C38.7381 52.091 38.7128 52.1014 38.6936 52.1746C38.6731 52.2529 38.6839 52.2596 38.7998 52.2401C38.8708 52.2283 39.0461 52.2008 39.1893 52.1792C39.4725 52.1364 39.5012 52.1236 39.4609 52.0582C39.4272 52.0036 39.2757 52.0006 39.2757 52.0544ZM30.9148 52.1134C30.9148 52.1454 30.9697 52.1819 31.0372 52.195C31.4251 52.2699 31.3996 52.2713 31.3748 52.1764C31.356 52.1043 31.3307 52.0925 31.2353 52.1117C31.1708 52.1246 31.1188 52.1172 31.1188 52.0953C31.1188 52.0733 31.0728 52.0555 31.0167 52.0555C30.9559 52.0555 30.9148 52.0788 30.9148 52.1134ZM31.445 52.1982C31.445 52.2593 31.457 52.2643 31.6489 52.2811C31.705 52.2861 31.8216 52.3039 31.9081 52.3209C32.0617 52.3509 32.0642 52.3495 32.0164 52.2601C31.9741 52.1813 31.9454 52.1721 31.8081 52.1941C31.7111 52.2096 31.6489 52.2035 31.6489 52.1783C31.6489 52.1556 31.6029 52.137 31.547 52.137C31.4835 52.137 31.445 52.1601 31.445 52.1982ZM38.3784 52.2186C38.3453 52.2805 38.3474 52.3 38.3872 52.2996C38.5071 52.2983 38.6231 52.2461 38.6231 52.1934C38.6231 52.105 38.4284 52.125 38.3784 52.2186ZM38.036 52.2426C37.9999 52.3363 38.0174 52.3458 38.1695 52.3154C38.3205 52.2853 38.3185 52.204 38.1663 52.1858C38.0982 52.1776 38.0533 52.1972 38.036 52.2426ZM32.0976 52.2752C32.0976 52.3321 32.37 52.4084 32.4143 52.364C32.427 52.3513 32.416 52.341 32.3898 52.341C32.3637 52.341 32.3423 52.3135 32.3423 52.2798C32.3423 52.239 32.3014 52.2186 32.2199 52.2186C32.1426 52.2186 32.0976 52.2395 32.0976 52.2752ZM37.6312 52.3047C37.611 52.382 37.6216 52.3883 37.7336 52.3659C37.8022 52.3522 37.8744 52.341 37.8941 52.341C37.9137 52.341 37.9297 52.3135 37.9297 52.2798C37.9297 52.1758 37.659 52.1985 37.6312 52.3047ZM32.4906 52.3205C32.477 52.3563 32.49 52.3817 32.5219 52.3817C32.552 52.3817 32.6329 52.393 32.7016 52.4067C32.8136 52.4291 32.8241 52.4228 32.8039 52.3456C32.7764 52.2404 32.5289 52.2207 32.4906 52.3205ZM37.161 52.3461C37.1079 52.4313 37.1104 52.4324 37.3042 52.4035C37.5272 52.3702 37.5407 52.3635 37.5032 52.3029C37.4537 52.2229 37.2195 52.2525 37.161 52.3461ZM32.9392 52.3614C32.9237 52.402 32.9408 52.4226 32.9904 52.4226C33.0314 52.4226 33.1524 52.4345 33.2591 52.4491L33.4532 52.4757L33.3782 52.388C33.2863 52.2807 32.9774 52.2619 32.9392 52.3614ZM36.568 52.3875L36.4932 52.4749L36.7524 52.4456C37.0372 52.4133 37.0529 52.4072 37.0138 52.3436C36.963 52.2615 36.6494 52.2925 36.568 52.3875ZM33.5845 52.3845C33.5402 52.4561 33.5746 52.4636 34.0592 52.4876C34.3794 52.5035 34.5058 52.4979 34.4649 52.4693C34.4324 52.4466 34.3931 52.4356 34.3779 52.4452C34.3625 52.4547 34.3272 52.4351 34.2996 52.4017C34.239 52.3287 33.628 52.3141 33.5845 52.3845ZM35.6479 52.3996C35.621 52.432 35.5591 52.4677 35.5103 52.4791C35.4614 52.4904 35.6316 52.491 35.8883 52.4803C36.3781 52.4599 36.4046 52.4546 36.3612 52.3845C36.3186 52.3156 35.7067 52.3286 35.6479 52.3996Z" fill="#049CFB"/>
</svg>
