<svg width="40" height="40" viewBox="0 0 40 40" fill="none" xmlns="http://www.w3.org/2000/svg">
<path fill-rule="evenodd" clip-rule="evenodd" d="M19.21 0.202291C18.4676 0.590437 18.3583 0.918045 18.3604 2.74921C18.3623 4.44018 18.4177 4.67082 18.9301 5.12101C19.734 5.82756 20.9661 5.54868 21.4155 4.55855C21.6777 3.98089 21.6275 1.38044 21.3437 0.836593C20.9293 0.0427894 20.0277 -0.225181 19.21 0.202291ZM28.5945 2.51005C28.0785 2.67476 27.7817 3.14386 23.1895 11.0524C17.6636 20.5689 18.1105 19.6788 18.1155 21.1582C18.1249 23.9 20.0604 25.714 23.1097 25.8389C24.0822 25.8788 24.2243 25.9011 24.1952 26.0095C24.1768 26.078 23.3087 28.5086 22.2659 31.4109C20.0229 37.654 20.1237 37.3384 20.1849 37.9272C20.3803 39.8028 22.7962 40.6508 24.4608 39.4282C24.7568 39.2108 32.4173 29.3852 33.5139 27.8165C34.2688 26.7365 33.2442 25.1114 31.9603 25.3524C31.2787 25.4804 31.2439 25.5189 28.0007 29.7473C24.4586 34.3655 24.715 34.0467 24.8721 33.6388C25.6518 31.6164 28.0638 24.7119 28.0976 24.4059C28.1494 23.9372 28.0337 23.5296 27.7547 23.1977C27.3419 22.7067 27.2945 22.6982 24.7246 22.6553C21.7731 22.606 21.4095 22.4473 21.3425 21.1786L21.3152 20.6619L25.6861 13.1571L30.057 5.65235L32.7998 5.63173C34.3083 5.62043 35.5425 5.62653 35.5425 5.64534C35.5425 5.66415 34.1855 7.9424 32.5271 10.7082C30.8686 13.4739 29.445 15.8673 29.3637 16.0268C29.0661 16.6102 29.2087 17.3933 29.6978 17.8623C30.1658 18.3111 30.1654 18.311 33.5097 18.3395C35.5259 18.3566 36.6275 18.3943 36.6926 18.4485C36.8953 18.6169 36.7955 18.9206 36.3637 19.4488C35.5171 20.4845 35.4696 21.3356 36.2188 22.0444C38.0219 23.7505 40.9097 19.798 39.7137 17.2612C38.9491 15.6397 37.9225 15.1506 35.2834 15.1506C34.0095 15.1506 33.6595 15.1291 33.689 15.0528C33.7098 14.9991 35.0815 12.6986 36.7373 9.94067C40.2773 4.04413 39.9946 4.55865 39.9946 4.01141C39.9946 3.27884 39.5632 2.66895 38.9183 2.48964C38.5066 2.37527 28.958 2.39408 28.5945 2.51005ZM10.1687 2.56579C9.3491 2.91261 8.94398 3.85291 9.28341 4.62089C10.3496 7.03312 11.5564 7.96832 12.7534 7.3097C13.7995 6.73403 13.7781 5.85207 12.6755 4.09636C11.7329 2.59541 11.0639 2.18695 10.1687 2.56579ZM17.812 7.97102C13.6844 8.84017 10.6581 11.1669 8.94478 14.7887C5.46654 22.1415 10.0306 30.7679 18.0853 32.0646C19.4156 32.2787 20.3956 30.7302 19.6466 29.5974C19.3705 29.1799 19.074 29.0207 18.2059 28.8239C8.34341 26.5889 8.76212 12.6062 18.7373 11.0778C19.7686 10.9198 20.3318 10.4556 20.4364 9.6775C20.6166 8.33605 19.5065 7.61419 17.812 7.97102ZM3.53406 8.98036C2.61866 9.44585 2.38251 10.6649 3.05856 11.4356C3.26732 11.6736 4.41417 12.3858 5.39275 12.8852C7.06489 13.7385 8.63495 11.4942 7.20716 10.2917C5.95933 9.24082 4.23371 8.62473 3.53406 8.98036ZM0.901529 18.5405C-0.199732 19.0338 -0.319306 20.6388 0.693574 21.3334C1.12128 21.6267 4.35298 21.6267 4.78069 21.3334C5.69929 20.7034 5.69949 19.2918 4.78099 18.6613C4.44366 18.4298 1.36283 18.3339 0.901529 18.5405ZM5.53932 26.5908C4.93305 26.8143 3.15384 27.8396 2.8802 28.1234C1.87332 29.1674 2.67924 30.8775 4.12783 30.7709C4.58833 30.737 6.47452 29.7977 7.0424 29.3194C8.32252 28.2413 7.09708 26.0169 5.53932 26.5908ZM10.9102 32.2244C10.2298 32.4773 8.82311 34.6891 8.76532 35.5967C8.67244 37.0561 10.3707 37.8375 11.4293 36.8226C11.549 36.7079 11.9532 36.0853 12.3275 35.4391L13.0083 34.2642V33.7103C13.0083 32.5908 11.9469 31.8392 10.9102 32.2244Z" fill="#FEBE3D"/>
</svg>
