<svg width="156" height="156" viewBox="0 0 156 156" fill="none" xmlns="http://www.w3.org/2000/svg">
<path fill-rule="evenodd" clip-rule="evenodd" d="M74.9188 0.788262C72.0237 2.30074 71.5975 3.57733 71.6057 10.7128C71.6131 17.302 71.8291 18.2007 73.8275 19.9549C76.9628 22.7081 81.7677 21.6214 83.5204 17.7632C84.5431 15.5122 84.3474 5.37913 83.2404 3.25994C81.6242 0.166737 78.1079 -0.877457 74.9188 0.788262ZM111.519 9.78088C109.506 10.4227 108.349 12.2506 90.439 43.0676C68.888 80.1505 70.6309 76.6822 70.6504 82.4467C70.6871 93.1308 78.2354 100.199 90.1279 100.686C93.9206 100.841 94.4746 100.928 94.3612 101.351C94.2894 101.618 90.9038 111.089 86.837 122.398C78.0892 146.726 78.4823 145.496 78.7213 147.79C79.4832 155.099 88.9051 158.403 95.3972 153.639C96.5513 152.792 126.427 114.505 130.704 108.392C133.648 104.184 129.652 97.8511 124.645 98.7904C121.987 99.2891 121.851 99.4392 109.203 115.916C95.3886 133.911 96.3883 132.669 97.0013 131.08C100.042 123.199 109.449 96.2945 109.581 95.1022C109.783 93.2758 109.332 91.6873 108.243 90.3939C106.633 88.4806 106.449 88.4475 96.4258 88.2806C84.9151 88.0884 83.497 87.47 83.2357 82.5262L83.1293 80.5127L100.176 51.2691L117.222 22.0254L127.919 21.9451C133.802 21.901 138.616 21.9248 138.616 21.9981C138.616 22.0714 133.323 30.949 126.856 41.7263C120.388 52.5035 114.836 61.8299 114.518 62.4514C113.358 64.7246 113.914 67.7761 115.821 69.6037C117.647 71.3524 117.645 71.352 130.688 71.4632C138.551 71.5298 142.847 71.6768 143.101 71.8878C143.892 72.544 143.503 73.7274 141.819 75.7858C138.517 79.8214 138.332 83.138 141.253 85.9002C148.285 92.5482 159.548 77.1466 154.883 67.2614C151.901 60.9429 147.898 59.0369 137.605 59.0369C132.637 59.0369 131.272 58.9531 131.387 58.656C131.468 58.4466 136.818 49.4825 143.275 38.7356C157.081 15.7587 155.979 17.7636 155.979 15.6312C155.979 12.7766 154.297 10.4001 151.781 9.70134C150.176 9.25567 112.936 9.32897 111.519 9.78088ZM39.658 9.99806C36.4615 11.3495 34.8815 15.0135 36.2053 18.0061C40.3634 27.4058 45.07 31.05 49.7381 28.4836C53.8182 26.2404 53.7347 22.8037 49.4343 15.9622C45.7582 10.1135 43.1493 8.52184 39.658 9.99806ZM69.4666 31.0605C53.369 34.4473 41.5666 43.514 34.8846 57.627C21.3195 86.2784 39.1195 119.893 70.5327 124.946C75.7209 125.78 79.5428 119.746 76.6216 115.332C75.545 113.705 74.3885 113.084 71.0029 112.318C32.5393 103.609 34.1723 49.1222 73.0753 43.1666C77.0977 42.5509 79.2941 40.7421 79.7019 37.7101C80.4045 32.4829 76.0753 29.6701 69.4666 31.0605ZM13.7828 34.9936C10.2128 36.8075 9.29178 41.5578 11.9284 44.5609C12.7425 45.4882 17.2152 48.2636 21.0317 50.2097C27.5531 53.5345 33.6763 44.789 28.1079 40.1034C23.2414 36.0085 16.5115 33.6078 13.7828 34.9936ZM3.51596 72.2465C-0.778956 74.1688 -1.24529 80.4226 2.70494 83.1294C4.373 84.2723 16.9766 84.2723 18.6447 83.1294C22.2272 80.6745 22.228 75.174 18.6458 72.7171C17.3303 71.8153 5.31503 71.4413 3.51596 72.2465ZM21.6034 103.616C19.2389 104.487 12.3 108.482 11.2328 109.588C7.30594 113.656 10.449 120.32 16.0985 119.904C17.8945 119.772 25.2506 116.112 27.4653 114.248C32.4578 110.047 27.6786 101.379 21.6034 103.616ZM42.5496 125.568C39.8962 126.554 34.4101 135.172 34.1848 138.709C33.8225 144.396 40.4456 147.441 44.5744 143.486C45.0412 143.039 46.6176 140.613 48.0774 138.095L50.7324 133.517V131.358C50.7324 126.996 46.593 124.067 42.5496 125.568Z" fill="#FDC921"/>
</svg>
