<svg width="100" height="50" viewBox="0 0 100 50" fill="none" xmlns="http://www.w3.org/2000/svg">
<mask id="path-1-inside-1_6_324" fill="white">
<path d="M100 50C100 43.4339 98.7067 36.9321 96.194 30.8658C93.6812 24.7995 89.9983 19.2876 85.3553 14.6447C80.7124 10.0017 75.2004 6.31876 69.1342 3.80602C63.0679 1.29329 56.5661 -2.87013e-07 50 0C43.4339 2.87013e-07 36.9321 1.29329 30.8658 3.80602C24.7995 6.31876 19.2876 10.0017 14.6447 14.6447C10.0017 19.2876 6.31876 24.7996 3.80602 30.8658C1.29329 36.9321 -5.74026e-07 43.4339 0 50H4.75522C4.75522 44.0584 5.92551 38.1749 8.19927 32.6856C10.473 27.1962 13.8057 22.2085 18.0071 18.0071C22.2085 13.8057 27.1962 10.473 32.6856 8.19927C38.1749 5.92551 44.0584 4.75522 50 4.75522C55.9416 4.75522 61.8251 5.92551 67.3144 8.19927C72.8038 10.473 77.7915 13.8057 81.9929 18.0071C86.1943 22.2085 89.527 27.1962 91.8007 32.6856C94.0745 38.1749 95.2448 44.0584 95.2448 50H100Z"/>
</mask>
<path d="M100 50C100 43.4339 98.7067 36.9321 96.194 30.8658C93.6812 24.7995 89.9983 19.2876 85.3553 14.6447C80.7124 10.0017 75.2004 6.31876 69.1342 3.80602C63.0679 1.29329 56.5661 -2.87013e-07 50 0C43.4339 2.87013e-07 36.9321 1.29329 30.8658 3.80602C24.7995 6.31876 19.2876 10.0017 14.6447 14.6447C10.0017 19.2876 6.31876 24.7996 3.80602 30.8658C1.29329 36.9321 -5.74026e-07 43.4339 0 50H4.75522C4.75522 44.0584 5.92551 38.1749 8.19927 32.6856C10.473 27.1962 13.8057 22.2085 18.0071 18.0071C22.2085 13.8057 27.1962 10.473 32.6856 8.19927C38.1749 5.92551 44.0584 4.75522 50 4.75522C55.9416 4.75522 61.8251 5.92551 67.3144 8.19927C72.8038 10.473 77.7915 13.8057 81.9929 18.0071C86.1943 22.2085 89.527 27.1962 91.8007 32.6856C94.0745 38.1749 95.2448 44.0584 95.2448 50H100Z" stroke="#FDA933" stroke-width="8" mask="url(#path-1-inside-1_6_324)"/>
</svg>
